<?xml version="1.0" encoding="utf-8" standalone="no"?>
<!DOCTYPE svg PUBLIC "-//W3C//DTD SVG 1.1//EN"
  "http://www.w3.org/Graphics/SVG/1.1/DTD/svg11.dtd">
<svg xmlns:xlink="http://www.w3.org/1999/xlink" width="712.8pt" height="928.8pt" viewBox="0 0 712.8 928.8" xmlns="http://www.w3.org/2000/svg" version="1.1">
 <metadata>
  <rdf:RDF xmlns:dc="http://purl.org/dc/elements/1.1/" xmlns:cc="http://creativecommons.org/ns#" xmlns:rdf="http://www.w3.org/1999/02/22-rdf-syntax-ns#">
   <cc:Work>
    <dc:type rdf:resource="http://purl.org/dc/dcmitype/StillImage"/>
    <dc:date>2025-11-25T13:26:36.833765</dc:date>
    <dc:format>image/svg+xml</dc:format>
    <dc:creator>
     <cc:Agent>
      <dc:title>Matplotlib v3.9.4, https://matplotlib.org/</dc:title>
     </cc:Agent>
    </dc:creator>
   </cc:Work>
  </rdf:RDF>
 </metadata>
 <defs>
  <style type="text/css">*{stroke-linejoin: round; stroke-linecap: butt}</style>
 </defs>
 <g id="figure_1">
  <g id="patch_1">
   <path d="M 0 928.8 
L 712.8 928.8 
L 712.8 0 
L 0 0 
z
" style="fill: #ffffff"/>
  </g>
  <g id="axes_1">
   <g id="patch_2">
    <path d="M 50.85 139.788 
L 181.8 139.788 
Q 186.165 139.788 186.165 135.216 
L 186.165 94.068 
Q 186.165 89.496 181.8 89.496 
L 50.85 89.496 
Q 46.485 89.496 46.485 94.068 
L 46.485 135.216 
Q 46.485 139.788 50.85 139.788 
z
" clip-path="url(#pb63460190c)" style="fill: #3498db; stroke: #000000; stroke-linejoin: miter"/>
   </g>
   <g id="patch_3">
    <path d="M 229.815 114.642 
L 221.085 118.071 
L 221.085 114.8706 
L 190.53 114.8706 
L 190.53 114.4134 
L 221.085 114.4134 
L 221.085 111.213 
z
" clip-path="url(#pb63460190c)" style="fill: #1f77b4; stroke: #000000; stroke-linejoin: miter"/>
   </g>
   <g id="patch_4">
    <path d="M 234.18 139.788 
L 365.13 139.788 
Q 369.495 139.788 369.495 135.216 
L 369.495 94.068 
Q 369.495 89.496 365.13 89.496 
L 234.18 89.496 
Q 229.815 89.496 229.815 94.068 
L 229.815 135.216 
Q 229.815 139.788 234.18 139.788 
z
" clip-path="url(#pb63460190c)" style="fill: #9b59b6; stroke: #000000; stroke-linejoin: miter"/>
   </g>
   <g id="patch_5">
    <path d="M 413.145 114.642 
L 404.415 118.071 
L 404.415 114.8706 
L 373.86 114.8706 
L 373.86 114.4134 
L 404.415 114.4134 
L 404.415 111.213 
z
" clip-path="url(#pb63460190c)" style="fill: #1f77b4; stroke: #000000; stroke-linejoin: miter"/>
   </g>
   <g id="patch_6">
    <path d="M 426.24 139.788 
L 557.19 139.788 
Q 561.555 139.788 561.555 135.216 
L 561.555 94.068 
Q 561.555 89.496 557.19 89.496 
L 426.24 89.496 
Q 421.875 89.496 421.875 94.068 
L 421.875 135.216 
Q 421.875 139.788 426.24 139.788 
z
" clip-path="url(#pb63460190c)" style="fill: #3498db; stroke: #000000; stroke-linejoin: miter"/>
   </g>
   <g id="patch_7">
    <path d="M 491.715 185.508 
L 487.35 176.364 
L 491.49675 176.364 
L 491.49675 139.788 
L 491.93325 139.788 
L 491.93325 176.364 
L 496.08 176.364 
z
" clip-path="url(#pb63460190c)" style="fill: #1f77b4; stroke: #000000; stroke-linejoin: miter"/>
   </g>
   <g id="patch_8">
    <path d="M 181.8 249.516 
L 531 249.516 
Q 535.365 249.516 535.365 244.944 
L 535.365 199.224 
Q 535.365 194.652 531 194.652 
L 181.8 194.652 
Q 177.435 194.652 177.435 199.224 
L 177.435 244.944 
Q 177.435 249.516 181.8 249.516 
z
" clip-path="url(#pb63460190c)" style="fill: #9b59b6; stroke: #000000; stroke-linejoin: miter"/>
   </g>
   <g id="patch_9">
    <path d="M 356.4 322.668 
L 352.035 313.524 
L 356.18175 313.524 
L 356.18175 276.948 
L 356.61825 276.948 
L 356.61825 313.524 
L 360.765 313.524 
z
" clip-path="url(#pb63460190c)" style="fill: #1f77b4; stroke: #000000; stroke-linejoin: miter"/>
   </g>
   <g id="patch_10">
    <path d="M 181.8 386.676 
L 531 386.676 
Q 535.365 386.676 535.365 382.104 
L 535.365 336.384 
Q 535.365 331.812 531 331.812 
L 181.8 331.812 
Q 177.435 331.812 177.435 336.384 
L 177.435 382.104 
Q 177.435 386.676 181.8 386.676 
z
" clip-path="url(#pb63460190c)" style="fill: #e74c3c; stroke: #000000; stroke-linejoin: miter"/>
   </g>
   <g id="patch_11">
    <path d="M 356.4 459.828 
L 352.035 450.684 
L 356.18175 450.684 
L 356.18175 404.964 
L 356.61825 404.964 
L 356.61825 450.684 
L 360.765 450.684 
z
" clip-path="url(#pb63460190c)" style="fill: #1f77b4; stroke: #000000; stroke-linejoin: miter"/>
   </g>
   <g id="patch_12">
    <path d="M 50.85 523.836 
L 225.45 523.836 
Q 229.815 523.836 229.815 519.264 
L 229.815 478.116 
Q 229.815 473.544 225.45 473.544 
L 50.85 473.544 
Q 46.485 473.544 46.485 478.116 
L 46.485 519.264 
Q 46.485 523.836 50.85 523.836 
z
" clip-path="url(#pb63460190c)" style="fill: #9b59b6; stroke: #000000; stroke-linejoin: miter"/>
   </g>
   <g id="patch_13">
    <path d="M 273.465 498.69 
L 264.735 502.119 
L 264.735 498.9186 
L 234.18 498.9186 
L 234.18 498.4614 
L 264.735 498.4614 
L 264.735 495.261 
z
" clip-path="url(#pb63460190c)" style="fill: #1f77b4; stroke: #000000; stroke-linejoin: miter"/>
   </g>
   <g id="patch_14">
    <path d="M 277.83 560.412 
L 452.43 560.412 
Q 456.795 560.412 456.795 555.84 
L 456.795 478.116 
Q 456.795 473.544 452.43 473.544 
L 277.83 473.544 
Q 273.465 473.544 273.465 478.116 
L 273.465 555.84 
Q 273.465 560.412 277.83 560.412 
z
" clip-path="url(#pb63460190c)" style="fill: #f39c12; stroke: #000000; stroke-linejoin: miter"/>
   </g>
   <g id="patch_15">
    <path d="M 500.445 510.12 
L 491.715 513.549 
L 491.715 510.3486 
L 461.16 510.3486 
L 461.16 509.8914 
L 491.715 509.8914 
L 491.715 506.691 
z
" clip-path="url(#pb63460190c)" style="fill: #1f77b4; stroke: #000000; stroke-linejoin: miter"/>
   </g>
   <g id="patch_16">
    <path d="M 504.81 560.412 
L 635.76 560.412 
Q 640.125 560.412 640.125 555.84 
L 640.125 478.116 
Q 640.125 473.544 635.76 473.544 
L 504.81 473.544 
Q 500.445 473.544 500.445 478.116 
L 500.445 555.84 
Q 500.445 560.412 504.81 560.412 
z
" clip-path="url(#pb63460190c)" style="fill: #27ae60; stroke: #000000; stroke-linejoin: miter"/>
   </g>
   <g id="patch_17">
    <path d="M 574.65 619.848 
L 570.285 610.704 
L 574.43175 610.704 
L 574.43175 564.984 
L 574.86825 564.984 
L 574.86825 610.704 
L 579.015 610.704 
z
" clip-path="url(#pb63460190c)" style="fill: #1f77b4; stroke: #000000; stroke-linejoin: miter"/>
   </g>
   <g id="patch_18">
    <path d="M 138.15 674.712 
L 269.1 674.712 
Q 273.465 674.712 273.465 670.14 
L 273.465 628.992 
Q 273.465 624.42 269.1 624.42 
L 138.15 624.42 
Q 133.785 624.42 133.785 628.992 
L 133.785 670.14 
Q 133.785 674.712 138.15 674.712 
z
" clip-path="url(#pb63460190c)" style="fill: #2c3e50; stroke: #000000; stroke-linejoin: miter"/>
   </g>
   <g id="patch_19">
    <path d="M 312.75 674.712 
L 443.7 674.712 
Q 448.065 674.712 448.065 670.14 
L 448.065 628.992 
Q 448.065 624.42 443.7 624.42 
L 312.75 624.42 
Q 308.385 624.42 308.385 628.992 
L 308.385 670.14 
Q 308.385 674.712 312.75 674.712 
z
" clip-path="url(#pb63460190c)" style="fill: #2c3e50; stroke: #000000; stroke-linejoin: miter"/>
   </g>
   <g id="patch_20">
    <path d="M 487.35 674.712 
L 618.3 674.712 
Q 622.665 674.712 622.665 670.14 
L 622.665 628.992 
Q 622.665 624.42 618.3 624.42 
L 487.35 624.42 
Q 482.985 624.42 482.985 628.992 
L 482.985 670.14 
Q 482.985 674.712 487.35 674.712 
z
" clip-path="url(#pb63460190c)" style="fill: #2c3e50; stroke: #000000; stroke-linejoin: miter"/>
   </g>
   <g id="text_1">
    <g id="patch_21">
     <path d="M 152.90375 53.5035 
L 559.89625 53.5035 
Q 566.29625 53.5035 566.29625 47.1035 
L 566.29625 31.6185 
Q 566.29625 25.2185 559.89625 25.2185 
L 152.90375 25.2185 
Q 146.50375 25.2185 146.50375 31.6185 
L 146.50375 47.1035 
Q 146.50375 53.5035 152.90375 53.5035 
z
" style="fill: #34495e; stroke: #000000; stroke-linejoin: miter"/>
    </g>
    <!-- END-TO-END PATH LOSS PREDICTION SYSTEM -->
    <g style="fill: #ffffff" transform="translate(152.90375 43.776) scale(0.16 -0.16)">
     <defs>
      <path id="DejaVuSans-Bold-45" d="M 588 4666 
L 3834 4666 
L 3834 3756 
L 1791 3756 
L 1791 2888 
L 3713 2888 
L 3713 1978 
L 1791 1978 
L 1791 909 
L 3903 909 
L 3903 0 
L 588 0 
L 588 4666 
z
" transform="scale(0.015625)"/>
      <path id="DejaVuSans-Bold-4e" d="M 588 4666 
L 1931 4666 
L 3628 1466 
L 3628 4666 
L 4769 4666 
L 4769 0 
L 3425 0 
L 1728 3200 
L 1728 0 
L 588 0 
L 588 4666 
z
" transform="scale(0.015625)"/>
      <path id="DejaVuSans-Bold-44" d="M 1791 3756 
L 1791 909 
L 2222 909 
Q 2959 909 3348 1275 
Q 3738 1641 3738 2338 
Q 3738 3031 3350 3393 
Q 2963 3756 2222 3756 
L 1791 3756 
z
M 588 4666 
L 1856 4666 
Q 2919 4666 3439 4514 
Q 3959 4363 4331 4000 
Q 4659 3684 4818 3271 
Q 4978 2859 4978 2338 
Q 4978 1809 4818 1395 
Q 4659 981 4331 666 
Q 3956 303 3431 151 
Q 2906 0 1856 0 
L 588 0 
L 588 4666 
z
" transform="scale(0.015625)"/>
      <path id="DejaVuSans-Bold-2d" d="M 347 2297 
L 2309 2297 
L 2309 1388 
L 347 1388 
L 347 2297 
z
" transform="scale(0.015625)"/>
      <path id="DejaVuSans-Bold-54" d="M 31 4666 
L 4331 4666 
L 4331 3756 
L 2784 3756 
L 2784 0 
L 1581 0 
L 1581 3756 
L 31 3756 
L 31 4666 
z
" transform="scale(0.015625)"/>
      <path id="DejaVuSans-Bold-4f" d="M 2719 3878 
Q 2169 3878 1866 3472 
Q 1563 3066 1563 2328 
Q 1563 1594 1866 1187 
Q 2169 781 2719 781 
Q 3272 781 3575 1187 
Q 3878 1594 3878 2328 
Q 3878 3066 3575 3472 
Q 3272 3878 2719 3878 
z
M 2719 4750 
Q 3844 4750 4481 4106 
Q 5119 3463 5119 2328 
Q 5119 1197 4481 553 
Q 3844 -91 2719 -91 
Q 1597 -91 958 553 
Q 319 1197 319 2328 
Q 319 3463 958 4106 
Q 1597 4750 2719 4750 
z
" transform="scale(0.015625)"/>
      <path id="DejaVuSans-Bold-20" transform="scale(0.015625)"/>
      <path id="DejaVuSans-Bold-50" d="M 588 4666 
L 2584 4666 
Q 3475 4666 3951 4270 
Q 4428 3875 4428 3144 
Q 4428 2409 3951 2014 
Q 3475 1619 2584 1619 
L 1791 1619 
L 1791 0 
L 588 0 
L 588 4666 
z
M 1791 3794 
L 1791 2491 
L 2456 2491 
Q 2806 2491 2997 2661 
Q 3188 2831 3188 3144 
Q 3188 3456 2997 3625 
Q 2806 3794 2456 3794 
L 1791 3794 
z
" transform="scale(0.015625)"/>
      <path id="DejaVuSans-Bold-41" d="M 3419 850 
L 1538 850 
L 1241 0 
L 31 0 
L 1759 4666 
L 3194 4666 
L 4922 0 
L 3713 0 
L 3419 850 
z
M 1838 1716 
L 3116 1716 
L 2478 3572 
L 1838 1716 
z
" transform="scale(0.015625)"/>
      <path id="DejaVuSans-Bold-48" d="M 588 4666 
L 1791 4666 
L 1791 2888 
L 3566 2888 
L 3566 4666 
L 4769 4666 
L 4769 0 
L 3566 0 
L 3566 1978 
L 1791 1978 
L 1791 0 
L 588 0 
L 588 4666 
z
" transform="scale(0.015625)"/>
      <path id="DejaVuSans-Bold-4c" d="M 588 4666 
L 1791 4666 
L 1791 909 
L 3903 909 
L 3903 0 
L 588 0 
L 588 4666 
z
" transform="scale(0.015625)"/>
      <path id="DejaVuSans-Bold-53" d="M 3834 4519 
L 3834 3531 
Q 3450 3703 3084 3790 
Q 2719 3878 2394 3878 
Q 1963 3878 1756 3759 
Q 1550 3641 1550 3391 
Q 1550 3203 1689 3098 
Q 1828 2994 2194 2919 
L 2706 2816 
Q 3484 2659 3812 2340 
Q 4141 2022 4141 1434 
Q 4141 663 3683 286 
Q 3225 -91 2284 -91 
Q 1841 -91 1394 -6 
Q 947 78 500 244 
L 500 1259 
Q 947 1022 1364 901 
Q 1781 781 2169 781 
Q 2563 781 2772 912 
Q 2981 1044 2981 1288 
Q 2981 1506 2839 1625 
Q 2697 1744 2272 1838 
L 1806 1941 
Q 1106 2091 782 2419 
Q 459 2747 459 3303 
Q 459 4000 909 4375 
Q 1359 4750 2203 4750 
Q 2588 4750 2994 4692 
Q 3400 4634 3834 4519 
z
" transform="scale(0.015625)"/>
      <path id="DejaVuSans-Bold-52" d="M 2297 2597 
Q 2675 2597 2839 2737 
Q 3003 2878 3003 3200 
Q 3003 3519 2839 3656 
Q 2675 3794 2297 3794 
L 1791 3794 
L 1791 2597 
L 2297 2597 
z
M 1791 1766 
L 1791 0 
L 588 0 
L 588 4666 
L 2425 4666 
Q 3347 4666 3776 4356 
Q 4206 4047 4206 3378 
Q 4206 2916 3982 2619 
Q 3759 2322 3309 2181 
Q 3556 2125 3751 1926 
Q 3947 1728 4147 1325 
L 4800 0 
L 3519 0 
L 2950 1159 
Q 2778 1509 2601 1637 
Q 2425 1766 2131 1766 
L 1791 1766 
z
" transform="scale(0.015625)"/>
      <path id="DejaVuSans-Bold-49" d="M 588 4666 
L 1791 4666 
L 1791 0 
L 588 0 
L 588 4666 
z
" transform="scale(0.015625)"/>
      <path id="DejaVuSans-Bold-43" d="M 4288 256 
Q 3956 84 3597 -3 
Q 3238 -91 2847 -91 
Q 1681 -91 1000 561 
Q 319 1213 319 2328 
Q 319 3447 1000 4098 
Q 1681 4750 2847 4750 
Q 3238 4750 3597 4662 
Q 3956 4575 4288 4403 
L 4288 3438 
Q 3953 3666 3628 3772 
Q 3303 3878 2944 3878 
Q 2300 3878 1931 3465 
Q 1563 3053 1563 2328 
Q 1563 1606 1931 1193 
Q 2300 781 2944 781 
Q 3303 781 3628 887 
Q 3953 994 4288 1222 
L 4288 256 
z
" transform="scale(0.015625)"/>
      <path id="DejaVuSans-Bold-59" d="M -63 4666 
L 1253 4666 
L 2316 3003 
L 3378 4666 
L 4697 4666 
L 2919 1966 
L 2919 0 
L 1716 0 
L 1716 1966 
L -63 4666 
z
" transform="scale(0.015625)"/>
      <path id="DejaVuSans-Bold-4d" d="M 588 4666 
L 2119 4666 
L 3181 2169 
L 4250 4666 
L 5778 4666 
L 5778 0 
L 4641 0 
L 4641 3413 
L 3566 897 
L 2803 897 
L 1728 3413 
L 1728 0 
L 588 0 
L 588 4666 
z
" transform="scale(0.015625)"/>
     </defs>
     <use xlink:href="#DejaVuSans-Bold-45"/>
     <use xlink:href="#DejaVuSans-Bold-4e" x="68.310547"/>
     <use xlink:href="#DejaVuSans-Bold-44" x="152.001953"/>
     <use xlink:href="#DejaVuSans-Bold-2d" x="236.884766"/>
     <use xlink:href="#DejaVuSans-Bold-54" x="263.638672"/>
     <use xlink:href="#DejaVuSans-Bold-4f" x="331.851562"/>
     <use xlink:href="#DejaVuSans-Bold-2d" x="418.736328"/>
     <use xlink:href="#DejaVuSans-Bold-45" x="460.240234"/>
     <use xlink:href="#DejaVuSans-Bold-4e" x="528.550781"/>
     <use xlink:href="#DejaVuSans-Bold-44" x="612.242188"/>
     <use xlink:href="#DejaVuSans-Bold-20" x="695.25"/>
     <use xlink:href="#DejaVuSans-Bold-50" x="730.064453"/>
     <use xlink:href="#DejaVuSans-Bold-41" x="794.230469"/>
     <use xlink:href="#DejaVuSans-Bold-54" x="863.873047"/>
     <use xlink:href="#DejaVuSans-Bold-48" x="932.085938"/>
     <use xlink:href="#DejaVuSans-Bold-20" x="1015.777344"/>
     <use xlink:href="#DejaVuSans-Bold-4c" x="1050.591797"/>
     <use xlink:href="#DejaVuSans-Bold-4f" x="1110.6875"/>
     <use xlink:href="#DejaVuSans-Bold-53" x="1195.697266"/>
     <use xlink:href="#DejaVuSans-Bold-53" x="1263.21875"/>
     <use xlink:href="#DejaVuSans-Bold-20" x="1335.240234"/>
     <use xlink:href="#DejaVuSans-Bold-50" x="1370.054688"/>
     <use xlink:href="#DejaVuSans-Bold-52" x="1443.345703"/>
     <use xlink:href="#DejaVuSans-Bold-45" x="1520.347656"/>
     <use xlink:href="#DejaVuSans-Bold-44" x="1588.658203"/>
     <use xlink:href="#DejaVuSans-Bold-49" x="1671.666016"/>
     <use xlink:href="#DejaVuSans-Bold-43" x="1708.873047"/>
     <use xlink:href="#DejaVuSans-Bold-54" x="1782.261719"/>
     <use xlink:href="#DejaVuSans-Bold-49" x="1850.474609"/>
     <use xlink:href="#DejaVuSans-Bold-4f" x="1887.681641"/>
     <use xlink:href="#DejaVuSans-Bold-4e" x="1972.691406"/>
     <use xlink:href="#DejaVuSans-Bold-20" x="2056.382812"/>
     <use xlink:href="#DejaVuSans-Bold-53" x="2091.197266"/>
     <use xlink:href="#DejaVuSans-Bold-59" x="2163.21875"/>
     <use xlink:href="#DejaVuSans-Bold-53" x="2235.630859"/>
     <use xlink:href="#DejaVuSans-Bold-54" x="2307.652344"/>
     <use xlink:href="#DejaVuSans-Bold-45" x="2375.865234"/>
     <use xlink:href="#DejaVuSans-Bold-4d" x="2444.175781"/>
    </g>
   </g>
   <g id="text_2">
    <g id="patch_22">
     <path d="M 217.873906 93.983656 
L 494.926094 93.983656 
Q 497.126094 93.983656 497.126094 91.783656 
L 497.126094 81.137719 
Q 497.126094 78.937719 494.926094 78.937719 
L 217.873906 78.937719 
Q 215.673906 78.937719 215.673906 81.137719 
L 215.673906 91.783656 
Q 215.673906 93.983656 217.873906 93.983656 
z
" style="fill: #ecf0f1; stroke: #000000; stroke-linejoin: miter"/>
    </g>
    <!-- PHASE 1: DATA COLLECTION &amp; PREPARATION -->
    <g transform="translate(217.873906 89.496) scale(0.11 -0.11)">
     <defs>
      <path id="DejaVuSans-Bold-31" d="M 750 831 
L 1813 831 
L 1813 3847 
L 722 3622 
L 722 4441 
L 1806 4666 
L 2950 4666 
L 2950 831 
L 4013 831 
L 4013 0 
L 750 0 
L 750 831 
z
" transform="scale(0.015625)"/>
      <path id="DejaVuSans-Bold-3a" d="M 716 3500 
L 1844 3500 
L 1844 2291 
L 716 2291 
L 716 3500 
z
M 716 1209 
L 1844 1209 
L 1844 0 
L 716 0 
L 716 1209 
z
" transform="scale(0.015625)"/>
      <path id="DejaVuSans-Bold-26" d="M 2497 3097 
L 3775 1691 
Q 3941 1909 4027 2181 
Q 4113 2453 4128 2797 
L 5100 2797 
Q 5053 2228 4879 1784 
Q 4706 1341 4397 1006 
L 5313 0 
L 3988 0 
L 3681 341 
Q 3353 122 2990 15 
Q 2628 -91 2222 -91 
Q 1400 -91 892 342 
Q 384 775 384 1459 
Q 384 1916 607 2267 
Q 831 2619 1338 2950 
Q 1206 3116 1143 3281 
Q 1081 3447 1081 3628 
Q 1081 4138 1478 4444 
Q 1875 4750 2534 4750 
Q 2819 4750 3126 4704 
Q 3434 4659 3769 4569 
L 3769 3700 
Q 3475 3850 3212 3922 
Q 2950 3994 2700 3994 
Q 2459 3994 2326 3901 
Q 2194 3809 2194 3641 
Q 2194 3534 2270 3398 
Q 2347 3263 2497 3097 
z
M 1875 2322 
Q 1672 2175 1569 1989 
Q 1466 1803 1466 1581 
Q 1466 1222 1731 969 
Q 1997 716 2369 716 
Q 2578 716 2759 780 
Q 2941 844 3097 972 
L 1875 2322 
z
" transform="scale(0.015625)"/>
     </defs>
     <use xlink:href="#DejaVuSans-Bold-50"/>
     <use xlink:href="#DejaVuSans-Bold-48" x="73.291016"/>
     <use xlink:href="#DejaVuSans-Bold-41" x="156.982422"/>
     <use xlink:href="#DejaVuSans-Bold-53" x="234.375"/>
     <use xlink:href="#DejaVuSans-Bold-45" x="306.396484"/>
     <use xlink:href="#DejaVuSans-Bold-20" x="374.707031"/>
     <use xlink:href="#DejaVuSans-Bold-31" x="409.521484"/>
     <use xlink:href="#DejaVuSans-Bold-3a" x="479.101562"/>
     <use xlink:href="#DejaVuSans-Bold-20" x="519.091797"/>
     <use xlink:href="#DejaVuSans-Bold-44" x="553.90625"/>
     <use xlink:href="#DejaVuSans-Bold-41" x="636.914062"/>
     <use xlink:href="#DejaVuSans-Bold-54" x="706.556641"/>
     <use xlink:href="#DejaVuSans-Bold-41" x="767.019531"/>
     <use xlink:href="#DejaVuSans-Bold-20" x="844.412109"/>
     <use xlink:href="#DejaVuSans-Bold-43" x="879.226562"/>
     <use xlink:href="#DejaVuSans-Bold-4f" x="952.615234"/>
     <use xlink:href="#DejaVuSans-Bold-4c" x="1037.625"/>
     <use xlink:href="#DejaVuSans-Bold-4c" x="1101.345703"/>
     <use xlink:href="#DejaVuSans-Bold-45" x="1165.066406"/>
     <use xlink:href="#DejaVuSans-Bold-43" x="1233.376953"/>
     <use xlink:href="#DejaVuSans-Bold-54" x="1306.765625"/>
     <use xlink:href="#DejaVuSans-Bold-49" x="1374.978516"/>
     <use xlink:href="#DejaVuSans-Bold-4f" x="1412.185547"/>
     <use xlink:href="#DejaVuSans-Bold-4e" x="1497.195312"/>
     <use xlink:href="#DejaVuSans-Bold-20" x="1580.886719"/>
     <use xlink:href="#DejaVuSans-Bold-26" x="1615.701172"/>
     <use xlink:href="#DejaVuSans-Bold-20" x="1702.908203"/>
     <use xlink:href="#DejaVuSans-Bold-50" x="1737.722656"/>
     <use xlink:href="#DejaVuSans-Bold-52" x="1811.013672"/>
     <use xlink:href="#DejaVuSans-Bold-45" x="1888.015625"/>
     <use xlink:href="#DejaVuSans-Bold-50" x="1956.326172"/>
     <use xlink:href="#DejaVuSans-Bold-41" x="2020.492188"/>
     <use xlink:href="#DejaVuSans-Bold-52" x="2097.884766"/>
     <use xlink:href="#DejaVuSans-Bold-41" x="2174.886719"/>
     <use xlink:href="#DejaVuSans-Bold-54" x="2244.529297"/>
     <use xlink:href="#DejaVuSans-Bold-49" x="2312.742188"/>
     <use xlink:href="#DejaVuSans-Bold-4f" x="2349.949219"/>
     <use xlink:href="#DejaVuSans-Bold-4e" x="2434.958984"/>
    </g>
   </g>
   <g id="text_3">
    <!-- 1.1 Data Collection -->
    <g style="fill: #ffffff" transform="translate(73.305 105.498) scale(0.09 -0.09)">
     <defs>
      <path id="DejaVuSans-31" d="M 794 531 
L 1825 531 
L 1825 4091 
L 703 3866 
L 703 4441 
L 1819 4666 
L 2450 4666 
L 2450 531 
L 3481 531 
L 3481 0 
L 794 0 
L 794 531 
z
" transform="scale(0.015625)"/>
      <path id="DejaVuSans-2e" d="M 684 794 
L 1344 794 
L 1344 0 
L 684 0 
L 684 794 
z
" transform="scale(0.015625)"/>
      <path id="DejaVuSans-20" transform="scale(0.015625)"/>
      <path id="DejaVuSans-44" d="M 1259 4147 
L 1259 519 
L 2022 519 
Q 2988 519 3436 956 
Q 3884 1394 3884 2338 
Q 3884 3275 3436 3711 
Q 2988 4147 2022 4147 
L 1259 4147 
z
M 628 4666 
L 1925 4666 
Q 3281 4666 3915 4102 
Q 4550 3538 4550 2338 
Q 4550 1131 3912 565 
Q 3275 0 1925 0 
L 628 0 
L 628 4666 
z
" transform="scale(0.015625)"/>
      <path id="DejaVuSans-61" d="M 2194 1759 
Q 1497 1759 1228 1600 
Q 959 1441 959 1056 
Q 959 750 1161 570 
Q 1363 391 1709 391 
Q 2188 391 2477 730 
Q 2766 1069 2766 1631 
L 2766 1759 
L 2194 1759 
z
M 3341 1997 
L 3341 0 
L 2766 0 
L 2766 531 
Q 2569 213 2275 61 
Q 1981 -91 1556 -91 
Q 1019 -91 701 211 
Q 384 513 384 1019 
Q 384 1609 779 1909 
Q 1175 2209 1959 2209 
L 2766 2209 
L 2766 2266 
Q 2766 2663 2505 2880 
Q 2244 3097 1772 3097 
Q 1472 3097 1187 3025 
Q 903 2953 641 2809 
L 641 3341 
Q 956 3463 1253 3523 
Q 1550 3584 1831 3584 
Q 2591 3584 2966 3190 
Q 3341 2797 3341 1997 
z
" transform="scale(0.015625)"/>
      <path id="DejaVuSans-74" d="M 1172 4494 
L 1172 3500 
L 2356 3500 
L 2356 3053 
L 1172 3053 
L 1172 1153 
Q 1172 725 1289 603 
Q 1406 481 1766 481 
L 2356 481 
L 2356 0 
L 1766 0 
Q 1100 0 847 248 
Q 594 497 594 1153 
L 594 3053 
L 172 3053 
L 172 3500 
L 594 3500 
L 594 4494 
L 1172 4494 
z
" transform="scale(0.015625)"/>
      <path id="DejaVuSans-43" d="M 4122 4306 
L 4122 3641 
Q 3803 3938 3442 4084 
Q 3081 4231 2675 4231 
Q 1875 4231 1450 3742 
Q 1025 3253 1025 2328 
Q 1025 1406 1450 917 
Q 1875 428 2675 428 
Q 3081 428 3442 575 
Q 3803 722 4122 1019 
L 4122 359 
Q 3791 134 3420 21 
Q 3050 -91 2638 -91 
Q 1578 -91 968 557 
Q 359 1206 359 2328 
Q 359 3453 968 4101 
Q 1578 4750 2638 4750 
Q 3056 4750 3426 4639 
Q 3797 4528 4122 4306 
z
" transform="scale(0.015625)"/>
      <path id="DejaVuSans-6f" d="M 1959 3097 
Q 1497 3097 1228 2736 
Q 959 2375 959 1747 
Q 959 1119 1226 758 
Q 1494 397 1959 397 
Q 2419 397 2687 759 
Q 2956 1122 2956 1747 
Q 2956 2369 2687 2733 
Q 2419 3097 1959 3097 
z
M 1959 3584 
Q 2709 3584 3137 3096 
Q 3566 2609 3566 1747 
Q 3566 888 3137 398 
Q 2709 -91 1959 -91 
Q 1206 -91 779 398 
Q 353 888 353 1747 
Q 353 2609 779 3096 
Q 1206 3584 1959 3584 
z
" transform="scale(0.015625)"/>
      <path id="DejaVuSans-6c" d="M 603 4863 
L 1178 4863 
L 1178 0 
L 603 0 
L 603 4863 
z
" transform="scale(0.015625)"/>
      <path id="DejaVuSans-65" d="M 3597 1894 
L 3597 1613 
L 953 1613 
Q 991 1019 1311 708 
Q 1631 397 2203 397 
Q 2534 397 2845 478 
Q 3156 559 3463 722 
L 3463 178 
Q 3153 47 2828 -22 
Q 2503 -91 2169 -91 
Q 1331 -91 842 396 
Q 353 884 353 1716 
Q 353 2575 817 3079 
Q 1281 3584 2069 3584 
Q 2775 3584 3186 3129 
Q 3597 2675 3597 1894 
z
M 3022 2063 
Q 3016 2534 2758 2815 
Q 2500 3097 2075 3097 
Q 1594 3097 1305 2825 
Q 1016 2553 972 2059 
L 3022 2063 
z
" transform="scale(0.015625)"/>
      <path id="DejaVuSans-63" d="M 3122 3366 
L 3122 2828 
Q 2878 2963 2633 3030 
Q 2388 3097 2138 3097 
Q 1578 3097 1268 2742 
Q 959 2388 959 1747 
Q 959 1106 1268 751 
Q 1578 397 2138 397 
Q 2388 397 2633 464 
Q 2878 531 3122 666 
L 3122 134 
Q 2881 22 2623 -34 
Q 2366 -91 2075 -91 
Q 1284 -91 818 406 
Q 353 903 353 1747 
Q 353 2603 823 3093 
Q 1294 3584 2113 3584 
Q 2378 3584 2631 3529 
Q 2884 3475 3122 3366 
z
" transform="scale(0.015625)"/>
      <path id="DejaVuSans-69" d="M 603 3500 
L 1178 3500 
L 1178 0 
L 603 0 
L 603 3500 
z
M 603 4863 
L 1178 4863 
L 1178 4134 
L 603 4134 
L 603 4863 
z
" transform="scale(0.015625)"/>
      <path id="DejaVuSans-6e" d="M 3513 2113 
L 3513 0 
L 2938 0 
L 2938 2094 
Q 2938 2591 2744 2837 
Q 2550 3084 2163 3084 
Q 1697 3084 1428 2787 
Q 1159 2491 1159 1978 
L 1159 0 
L 581 0 
L 581 3500 
L 1159 3500 
L 1159 2956 
Q 1366 3272 1645 3428 
Q 1925 3584 2291 3584 
Q 2894 3584 3203 3211 
Q 3513 2838 3513 2113 
z
" transform="scale(0.015625)"/>
     </defs>
     <use xlink:href="#DejaVuSans-31"/>
     <use xlink:href="#DejaVuSans-2e" x="63.623047"/>
     <use xlink:href="#DejaVuSans-31" x="95.410156"/>
     <use xlink:href="#DejaVuSans-20" x="159.033203"/>
     <use xlink:href="#DejaVuSans-44" x="190.820312"/>
     <use xlink:href="#DejaVuSans-61" x="267.822266"/>
     <use xlink:href="#DejaVuSans-74" x="329.101562"/>
     <use xlink:href="#DejaVuSans-61" x="368.310547"/>
     <use xlink:href="#DejaVuSans-20" x="429.589844"/>
     <use xlink:href="#DejaVuSans-43" x="461.376953"/>
     <use xlink:href="#DejaVuSans-6f" x="531.201172"/>
     <use xlink:href="#DejaVuSans-6c" x="592.382812"/>
     <use xlink:href="#DejaVuSans-6c" x="620.166016"/>
     <use xlink:href="#DejaVuSans-65" x="647.949219"/>
     <use xlink:href="#DejaVuSans-63" x="709.472656"/>
     <use xlink:href="#DejaVuSans-74" x="764.453125"/>
     <use xlink:href="#DejaVuSans-69" x="803.662109"/>
     <use xlink:href="#DejaVuSans-6f" x="831.445312"/>
     <use xlink:href="#DejaVuSans-6e" x="892.626953"/>
    </g>
   </g>
   <g id="text_4">
    <!-- RF Data, Env Data -->
    <g style="fill: #ffffff" transform="translate(84.215781 123.786) scale(0.07 -0.07)">
     <defs>
      <path id="DejaVuSans-52" d="M 2841 2188 
Q 3044 2119 3236 1894 
Q 3428 1669 3622 1275 
L 4263 0 
L 3584 0 
L 2988 1197 
Q 2756 1666 2539 1819 
Q 2322 1972 1947 1972 
L 1259 1972 
L 1259 0 
L 628 0 
L 628 4666 
L 2053 4666 
Q 2853 4666 3247 4331 
Q 3641 3997 3641 3322 
Q 3641 2881 3436 2590 
Q 3231 2300 2841 2188 
z
M 1259 4147 
L 1259 2491 
L 2053 2491 
Q 2509 2491 2742 2702 
Q 2975 2913 2975 3322 
Q 2975 3731 2742 3939 
Q 2509 4147 2053 4147 
L 1259 4147 
z
" transform="scale(0.015625)"/>
      <path id="DejaVuSans-46" d="M 628 4666 
L 3309 4666 
L 3309 4134 
L 1259 4134 
L 1259 2759 
L 3109 2759 
L 3109 2228 
L 1259 2228 
L 1259 0 
L 628 0 
L 628 4666 
z
" transform="scale(0.015625)"/>
      <path id="DejaVuSans-2c" d="M 750 794 
L 1409 794 
L 1409 256 
L 897 -744 
L 494 -744 
L 750 256 
L 750 794 
z
" transform="scale(0.015625)"/>
      <path id="DejaVuSans-45" d="M 628 4666 
L 3578 4666 
L 3578 4134 
L 1259 4134 
L 1259 2753 
L 3481 2753 
L 3481 2222 
L 1259 2222 
L 1259 531 
L 3634 531 
L 3634 0 
L 628 0 
L 628 4666 
z
" transform="scale(0.015625)"/>
      <path id="DejaVuSans-76" d="M 191 3500 
L 800 3500 
L 1894 563 
L 2988 3500 
L 3597 3500 
L 2284 0 
L 1503 0 
L 191 3500 
z
" transform="scale(0.015625)"/>
     </defs>
     <use xlink:href="#DejaVuSans-52"/>
     <use xlink:href="#DejaVuSans-46" x="69.482422"/>
     <use xlink:href="#DejaVuSans-20" x="127.001953"/>
     <use xlink:href="#DejaVuSans-44" x="158.789062"/>
     <use xlink:href="#DejaVuSans-61" x="235.791016"/>
     <use xlink:href="#DejaVuSans-74" x="297.070312"/>
     <use xlink:href="#DejaVuSans-61" x="336.279297"/>
     <use xlink:href="#DejaVuSans-2c" x="397.558594"/>
     <use xlink:href="#DejaVuSans-20" x="429.345703"/>
     <use xlink:href="#DejaVuSans-45" x="461.132812"/>
     <use xlink:href="#DejaVuSans-6e" x="524.316406"/>
     <use xlink:href="#DejaVuSans-76" x="587.695312"/>
     <use xlink:href="#DejaVuSans-20" x="646.875"/>
     <use xlink:href="#DejaVuSans-44" x="678.662109"/>
     <use xlink:href="#DejaVuSans-61" x="755.664062"/>
     <use xlink:href="#DejaVuSans-74" x="816.943359"/>
     <use xlink:href="#DejaVuSans-61" x="856.152344"/>
    </g>
   </g>
   <g id="text_5">
    <!-- 1.2 Data Cleaning -->
    <g style="fill: #ffffff" transform="translate(259.164141 105.498) scale(0.09 -0.09)">
     <defs>
      <path id="DejaVuSans-32" d="M 1228 531 
L 3431 531 
L 3431 0 
L 469 0 
L 469 531 
Q 828 903 1448 1529 
Q 2069 2156 2228 2338 
Q 2531 2678 2651 2914 
Q 2772 3150 2772 3378 
Q 2772 3750 2511 3984 
Q 2250 4219 1831 4219 
Q 1534 4219 1204 4116 
Q 875 4013 500 3803 
L 500 4441 
Q 881 4594 1212 4672 
Q 1544 4750 1819 4750 
Q 2544 4750 2975 4387 
Q 3406 4025 3406 3419 
Q 3406 3131 3298 2873 
Q 3191 2616 2906 2266 
Q 2828 2175 2409 1742 
Q 1991 1309 1228 531 
z
" transform="scale(0.015625)"/>
      <path id="DejaVuSans-67" d="M 2906 1791 
Q 2906 2416 2648 2759 
Q 2391 3103 1925 3103 
Q 1463 3103 1205 2759 
Q 947 2416 947 1791 
Q 947 1169 1205 825 
Q 1463 481 1925 481 
Q 2391 481 2648 825 
Q 2906 1169 2906 1791 
z
M 3481 434 
Q 3481 -459 3084 -895 
Q 2688 -1331 1869 -1331 
Q 1566 -1331 1297 -1286 
Q 1028 -1241 775 -1147 
L 775 -588 
Q 1028 -725 1275 -790 
Q 1522 -856 1778 -856 
Q 2344 -856 2625 -561 
Q 2906 -266 2906 331 
L 2906 616 
Q 2728 306 2450 153 
Q 2172 0 1784 0 
Q 1141 0 747 490 
Q 353 981 353 1791 
Q 353 2603 747 3093 
Q 1141 3584 1784 3584 
Q 2172 3584 2450 3431 
Q 2728 3278 2906 2969 
L 2906 3500 
L 3481 3500 
L 3481 434 
z
" transform="scale(0.015625)"/>
     </defs>
     <use xlink:href="#DejaVuSans-31"/>
     <use xlink:href="#DejaVuSans-2e" x="63.623047"/>
     <use xlink:href="#DejaVuSans-32" x="95.410156"/>
     <use xlink:href="#DejaVuSans-20" x="159.033203"/>
     <use xlink:href="#DejaVuSans-44" x="190.820312"/>
     <use xlink:href="#DejaVuSans-61" x="267.822266"/>
     <use xlink:href="#DejaVuSans-74" x="329.101562"/>
     <use xlink:href="#DejaVuSans-61" x="368.310547"/>
     <use xlink:href="#DejaVuSans-20" x="429.589844"/>
     <use xlink:href="#DejaVuSans-43" x="461.376953"/>
     <use xlink:href="#DejaVuSans-6c" x="531.201172"/>
     <use xlink:href="#DejaVuSans-65" x="558.984375"/>
     <use xlink:href="#DejaVuSans-61" x="620.507812"/>
     <use xlink:href="#DejaVuSans-6e" x="681.787109"/>
     <use xlink:href="#DejaVuSans-69" x="745.166016"/>
     <use xlink:href="#DejaVuSans-6e" x="772.949219"/>
     <use xlink:href="#DejaVuSans-67" x="836.328125"/>
    </g>
   </g>
   <g id="text_6">
    <!-- Missing Values, Outliers -->
    <g style="fill: #ffffff" transform="translate(258.125859 123.786) scale(0.07 -0.07)">
     <defs>
      <path id="DejaVuSans-4d" d="M 628 4666 
L 1569 4666 
L 2759 1491 
L 3956 4666 
L 4897 4666 
L 4897 0 
L 4281 0 
L 4281 4097 
L 3078 897 
L 2444 897 
L 1241 4097 
L 1241 0 
L 628 0 
L 628 4666 
z
" transform="scale(0.015625)"/>
      <path id="DejaVuSans-73" d="M 2834 3397 
L 2834 2853 
Q 2591 2978 2328 3040 
Q 2066 3103 1784 3103 
Q 1356 3103 1142 2972 
Q 928 2841 928 2578 
Q 928 2378 1081 2264 
Q 1234 2150 1697 2047 
L 1894 2003 
Q 2506 1872 2764 1633 
Q 3022 1394 3022 966 
Q 3022 478 2636 193 
Q 2250 -91 1575 -91 
Q 1294 -91 989 -36 
Q 684 19 347 128 
L 347 722 
Q 666 556 975 473 
Q 1284 391 1588 391 
Q 1994 391 2212 530 
Q 2431 669 2431 922 
Q 2431 1156 2273 1281 
Q 2116 1406 1581 1522 
L 1381 1569 
Q 847 1681 609 1914 
Q 372 2147 372 2553 
Q 372 3047 722 3315 
Q 1072 3584 1716 3584 
Q 2034 3584 2315 3537 
Q 2597 3491 2834 3397 
z
" transform="scale(0.015625)"/>
      <path id="DejaVuSans-56" d="M 1831 0 
L 50 4666 
L 709 4666 
L 2188 738 
L 3669 4666 
L 4325 4666 
L 2547 0 
L 1831 0 
z
" transform="scale(0.015625)"/>
      <path id="DejaVuSans-75" d="M 544 1381 
L 544 3500 
L 1119 3500 
L 1119 1403 
Q 1119 906 1312 657 
Q 1506 409 1894 409 
Q 2359 409 2629 706 
Q 2900 1003 2900 1516 
L 2900 3500 
L 3475 3500 
L 3475 0 
L 2900 0 
L 2900 538 
Q 2691 219 2414 64 
Q 2138 -91 1772 -91 
Q 1169 -91 856 284 
Q 544 659 544 1381 
z
M 1991 3584 
L 1991 3584 
z
" transform="scale(0.015625)"/>
      <path id="DejaVuSans-4f" d="M 2522 4238 
Q 1834 4238 1429 3725 
Q 1025 3213 1025 2328 
Q 1025 1447 1429 934 
Q 1834 422 2522 422 
Q 3209 422 3611 934 
Q 4013 1447 4013 2328 
Q 4013 3213 3611 3725 
Q 3209 4238 2522 4238 
z
M 2522 4750 
Q 3503 4750 4090 4092 
Q 4678 3434 4678 2328 
Q 4678 1225 4090 567 
Q 3503 -91 2522 -91 
Q 1538 -91 948 565 
Q 359 1222 359 2328 
Q 359 3434 948 4092 
Q 1538 4750 2522 4750 
z
" transform="scale(0.015625)"/>
      <path id="DejaVuSans-72" d="M 2631 2963 
Q 2534 3019 2420 3045 
Q 2306 3072 2169 3072 
Q 1681 3072 1420 2755 
Q 1159 2438 1159 1844 
L 1159 0 
L 581 0 
L 581 3500 
L 1159 3500 
L 1159 2956 
Q 1341 3275 1631 3429 
Q 1922 3584 2338 3584 
Q 2397 3584 2469 3576 
Q 2541 3569 2628 3553 
L 2631 2963 
z
" transform="scale(0.015625)"/>
     </defs>
     <use xlink:href="#DejaVuSans-4d"/>
     <use xlink:href="#DejaVuSans-69" x="86.279297"/>
     <use xlink:href="#DejaVuSans-73" x="114.0625"/>
     <use xlink:href="#DejaVuSans-73" x="166.162109"/>
     <use xlink:href="#DejaVuSans-69" x="218.261719"/>
     <use xlink:href="#DejaVuSans-6e" x="246.044922"/>
     <use xlink:href="#DejaVuSans-67" x="309.423828"/>
     <use xlink:href="#DejaVuSans-20" x="372.900391"/>
     <use xlink:href="#DejaVuSans-56" x="404.6875"/>
     <use xlink:href="#DejaVuSans-61" x="465.345703"/>
     <use xlink:href="#DejaVuSans-6c" x="526.625"/>
     <use xlink:href="#DejaVuSans-75" x="554.408203"/>
     <use xlink:href="#DejaVuSans-65" x="617.787109"/>
     <use xlink:href="#DejaVuSans-73" x="679.310547"/>
     <use xlink:href="#DejaVuSans-2c" x="731.410156"/>
     <use xlink:href="#DejaVuSans-20" x="763.197266"/>
     <use xlink:href="#DejaVuSans-4f" x="794.984375"/>
     <use xlink:href="#DejaVuSans-75" x="873.695312"/>
     <use xlink:href="#DejaVuSans-74" x="937.074219"/>
     <use xlink:href="#DejaVuSans-6c" x="976.283203"/>
     <use xlink:href="#DejaVuSans-69" x="1004.066406"/>
     <use xlink:href="#DejaVuSans-65" x="1031.849609"/>
     <use xlink:href="#DejaVuSans-72" x="1093.373047"/>
     <use xlink:href="#DejaVuSans-73" x="1134.486328"/>
    </g>
   </g>
   <g id="text_7">
    <!-- 1.3 Target Generation -->
    <g style="fill: #ffffff" transform="translate(442.669922 105.498) scale(0.09 -0.09)">
     <defs>
      <path id="DejaVuSans-33" d="M 2597 2516 
Q 3050 2419 3304 2112 
Q 3559 1806 3559 1356 
Q 3559 666 3084 287 
Q 2609 -91 1734 -91 
Q 1441 -91 1130 -33 
Q 819 25 488 141 
L 488 750 
Q 750 597 1062 519 
Q 1375 441 1716 441 
Q 2309 441 2620 675 
Q 2931 909 2931 1356 
Q 2931 1769 2642 2001 
Q 2353 2234 1838 2234 
L 1294 2234 
L 1294 2753 
L 1863 2753 
Q 2328 2753 2575 2939 
Q 2822 3125 2822 3475 
Q 2822 3834 2567 4026 
Q 2313 4219 1838 4219 
Q 1578 4219 1281 4162 
Q 984 4106 628 3988 
L 628 4550 
Q 988 4650 1302 4700 
Q 1616 4750 1894 4750 
Q 2613 4750 3031 4423 
Q 3450 4097 3450 3541 
Q 3450 3153 3228 2886 
Q 3006 2619 2597 2516 
z
" transform="scale(0.015625)"/>
      <path id="DejaVuSans-54" d="M -19 4666 
L 3928 4666 
L 3928 4134 
L 2272 4134 
L 2272 0 
L 1638 0 
L 1638 4134 
L -19 4134 
L -19 4666 
z
" transform="scale(0.015625)"/>
      <path id="DejaVuSans-47" d="M 3809 666 
L 3809 1919 
L 2778 1919 
L 2778 2438 
L 4434 2438 
L 4434 434 
Q 4069 175 3628 42 
Q 3188 -91 2688 -91 
Q 1594 -91 976 548 
Q 359 1188 359 2328 
Q 359 3472 976 4111 
Q 1594 4750 2688 4750 
Q 3144 4750 3555 4637 
Q 3966 4525 4313 4306 
L 4313 3634 
Q 3963 3931 3569 4081 
Q 3175 4231 2741 4231 
Q 1884 4231 1454 3753 
Q 1025 3275 1025 2328 
Q 1025 1384 1454 906 
Q 1884 428 2741 428 
Q 3075 428 3337 486 
Q 3600 544 3809 666 
z
" transform="scale(0.015625)"/>
     </defs>
     <use xlink:href="#DejaVuSans-31"/>
     <use xlink:href="#DejaVuSans-2e" x="63.623047"/>
     <use xlink:href="#DejaVuSans-33" x="95.410156"/>
     <use xlink:href="#DejaVuSans-20" x="159.033203"/>
     <use xlink:href="#DejaVuSans-54" x="190.820312"/>
     <use xlink:href="#DejaVuSans-61" x="235.404297"/>
     <use xlink:href="#DejaVuSans-72" x="296.683594"/>
     <use xlink:href="#DejaVuSans-67" x="336.046875"/>
     <use xlink:href="#DejaVuSans-65" x="399.523438"/>
     <use xlink:href="#DejaVuSans-74" x="461.046875"/>
     <use xlink:href="#DejaVuSans-20" x="500.255859"/>
     <use xlink:href="#DejaVuSans-47" x="532.042969"/>
     <use xlink:href="#DejaVuSans-65" x="609.533203"/>
     <use xlink:href="#DejaVuSans-6e" x="671.056641"/>
     <use xlink:href="#DejaVuSans-65" x="734.435547"/>
     <use xlink:href="#DejaVuSans-72" x="795.958984"/>
     <use xlink:href="#DejaVuSans-61" x="837.072266"/>
     <use xlink:href="#DejaVuSans-74" x="898.351562"/>
     <use xlink:href="#DejaVuSans-69" x="937.560547"/>
     <use xlink:href="#DejaVuSans-6f" x="965.34375"/>
     <use xlink:href="#DejaVuSans-6e" x="1026.525391"/>
    </g>
   </g>
   <g id="text_8">
    <!-- Path Loss = 23 − RSSI -->
    <g style="fill: #ffffff" transform="translate(452.560391 123.786) scale(0.07 -0.07)">
     <defs>
      <path id="DejaVuSans-50" d="M 1259 4147 
L 1259 2394 
L 2053 2394 
Q 2494 2394 2734 2622 
Q 2975 2850 2975 3272 
Q 2975 3691 2734 3919 
Q 2494 4147 2053 4147 
L 1259 4147 
z
M 628 4666 
L 2053 4666 
Q 2838 4666 3239 4311 
Q 3641 3956 3641 3272 
Q 3641 2581 3239 2228 
Q 2838 1875 2053 1875 
L 1259 1875 
L 1259 0 
L 628 0 
L 628 4666 
z
" transform="scale(0.015625)"/>
      <path id="DejaVuSans-68" d="M 3513 2113 
L 3513 0 
L 2938 0 
L 2938 2094 
Q 2938 2591 2744 2837 
Q 2550 3084 2163 3084 
Q 1697 3084 1428 2787 
Q 1159 2491 1159 1978 
L 1159 0 
L 581 0 
L 581 4863 
L 1159 4863 
L 1159 2956 
Q 1366 3272 1645 3428 
Q 1925 3584 2291 3584 
Q 2894 3584 3203 3211 
Q 3513 2838 3513 2113 
z
" transform="scale(0.015625)"/>
      <path id="DejaVuSans-4c" d="M 628 4666 
L 1259 4666 
L 1259 531 
L 3531 531 
L 3531 0 
L 628 0 
L 628 4666 
z
" transform="scale(0.015625)"/>
      <path id="DejaVuSans-3d" d="M 678 2906 
L 4684 2906 
L 4684 2381 
L 678 2381 
L 678 2906 
z
M 678 1631 
L 4684 1631 
L 4684 1100 
L 678 1100 
L 678 1631 
z
" transform="scale(0.015625)"/>
      <path id="DejaVuSans-2212" d="M 678 2272 
L 4684 2272 
L 4684 1741 
L 678 1741 
L 678 2272 
z
" transform="scale(0.015625)"/>
      <path id="DejaVuSans-53" d="M 3425 4513 
L 3425 3897 
Q 3066 4069 2747 4153 
Q 2428 4238 2131 4238 
Q 1616 4238 1336 4038 
Q 1056 3838 1056 3469 
Q 1056 3159 1242 3001 
Q 1428 2844 1947 2747 
L 2328 2669 
Q 3034 2534 3370 2195 
Q 3706 1856 3706 1288 
Q 3706 609 3251 259 
Q 2797 -91 1919 -91 
Q 1588 -91 1214 -16 
Q 841 59 441 206 
L 441 856 
Q 825 641 1194 531 
Q 1563 422 1919 422 
Q 2459 422 2753 634 
Q 3047 847 3047 1241 
Q 3047 1584 2836 1778 
Q 2625 1972 2144 2069 
L 1759 2144 
Q 1053 2284 737 2584 
Q 422 2884 422 3419 
Q 422 4038 858 4394 
Q 1294 4750 2059 4750 
Q 2388 4750 2728 4690 
Q 3069 4631 3425 4513 
z
" transform="scale(0.015625)"/>
      <path id="DejaVuSans-49" d="M 628 4666 
L 1259 4666 
L 1259 0 
L 628 0 
L 628 4666 
z
" transform="scale(0.015625)"/>
     </defs>
     <use xlink:href="#DejaVuSans-50"/>
     <use xlink:href="#DejaVuSans-61" x="55.802734"/>
     <use xlink:href="#DejaVuSans-74" x="117.082031"/>
     <use xlink:href="#DejaVuSans-68" x="156.291016"/>
     <use xlink:href="#DejaVuSans-20" x="219.669922"/>
     <use xlink:href="#DejaVuSans-4c" x="251.457031"/>
     <use xlink:href="#DejaVuSans-6f" x="305.419922"/>
     <use xlink:href="#DejaVuSans-73" x="366.601562"/>
     <use xlink:href="#DejaVuSans-73" x="418.701172"/>
     <use xlink:href="#DejaVuSans-20" x="470.800781"/>
     <use xlink:href="#DejaVuSans-3d" x="502.587891"/>
     <use xlink:href="#DejaVuSans-20" x="586.376953"/>
     <use xlink:href="#DejaVuSans-32" x="618.164062"/>
     <use xlink:href="#DejaVuSans-33" x="681.787109"/>
     <use xlink:href="#DejaVuSans-20" x="745.410156"/>
     <use xlink:href="#DejaVuSans-2212" x="777.197266"/>
     <use xlink:href="#DejaVuSans-20" x="860.986328"/>
     <use xlink:href="#DejaVuSans-52" x="892.773438"/>
     <use xlink:href="#DejaVuSans-53" x="962.255859"/>
     <use xlink:href="#DejaVuSans-53" x="1025.732422"/>
     <use xlink:href="#DejaVuSans-49" x="1089.208984"/>
    </g>
   </g>
   <g id="text_9">
    <g id="patch_23">
     <path d="M 231.999453 203.711656 
L 480.800547 203.711656 
Q 483.000547 203.711656 483.000547 201.511656 
L 483.000547 190.865719 
Q 483.000547 188.665719 480.800547 188.665719 
L 231.999453 188.665719 
Q 229.799453 188.665719 229.799453 190.865719 
L 229.799453 201.511656 
Q 229.799453 203.711656 231.999453 203.711656 
z
" style="fill: #ecf0f1; stroke: #000000; stroke-linejoin: miter"/>
    </g>
    <!-- PHASE 2: EXPLORATORY DATA ANALYSIS -->
    <g transform="translate(231.999453 199.224) scale(0.11 -0.11)">
     <defs>
      <path id="DejaVuSans-Bold-32" d="M 1844 884 
L 3897 884 
L 3897 0 
L 506 0 
L 506 884 
L 2209 2388 
Q 2438 2594 2547 2791 
Q 2656 2988 2656 3200 
Q 2656 3528 2436 3728 
Q 2216 3928 1850 3928 
Q 1569 3928 1234 3808 
Q 900 3688 519 3450 
L 519 4475 
Q 925 4609 1322 4679 
Q 1719 4750 2100 4750 
Q 2938 4750 3402 4381 
Q 3866 4013 3866 3353 
Q 3866 2972 3669 2642 
Q 3472 2313 2841 1759 
L 1844 884 
z
" transform="scale(0.015625)"/>
      <path id="DejaVuSans-Bold-58" d="M 3188 2381 
L 4806 0 
L 3553 0 
L 2463 1594 
L 1381 0 
L 122 0 
L 1741 2381 
L 184 4666 
L 1441 4666 
L 2463 3163 
L 3481 4666 
L 4744 4666 
L 3188 2381 
z
" transform="scale(0.015625)"/>
     </defs>
     <use xlink:href="#DejaVuSans-Bold-50"/>
     <use xlink:href="#DejaVuSans-Bold-48" x="73.291016"/>
     <use xlink:href="#DejaVuSans-Bold-41" x="156.982422"/>
     <use xlink:href="#DejaVuSans-Bold-53" x="234.375"/>
     <use xlink:href="#DejaVuSans-Bold-45" x="306.396484"/>
     <use xlink:href="#DejaVuSans-Bold-20" x="374.707031"/>
     <use xlink:href="#DejaVuSans-Bold-32" x="409.521484"/>
     <use xlink:href="#DejaVuSans-Bold-3a" x="479.101562"/>
     <use xlink:href="#DejaVuSans-Bold-20" x="519.091797"/>
     <use xlink:href="#DejaVuSans-Bold-45" x="553.90625"/>
     <use xlink:href="#DejaVuSans-Bold-58" x="622.216797"/>
     <use xlink:href="#DejaVuSans-Bold-50" x="699.316406"/>
     <use xlink:href="#DejaVuSans-Bold-4c" x="772.607422"/>
     <use xlink:href="#DejaVuSans-Bold-4f" x="832.703125"/>
     <use xlink:href="#DejaVuSans-Bold-52" x="917.712891"/>
     <use xlink:href="#DejaVuSans-Bold-41" x="994.714844"/>
     <use xlink:href="#DejaVuSans-Bold-54" x="1064.357422"/>
     <use xlink:href="#DejaVuSans-Bold-4f" x="1132.570312"/>
     <use xlink:href="#DejaVuSans-Bold-52" x="1217.580078"/>
     <use xlink:href="#DejaVuSans-Bold-59" x="1289.082031"/>
     <use xlink:href="#DejaVuSans-Bold-20" x="1361.494141"/>
     <use xlink:href="#DejaVuSans-Bold-44" x="1396.308594"/>
     <use xlink:href="#DejaVuSans-Bold-41" x="1479.316406"/>
     <use xlink:href="#DejaVuSans-Bold-54" x="1548.958984"/>
     <use xlink:href="#DejaVuSans-Bold-41" x="1609.421875"/>
     <use xlink:href="#DejaVuSans-Bold-20" x="1686.814453"/>
     <use xlink:href="#DejaVuSans-Bold-41" x="1721.628906"/>
     <use xlink:href="#DejaVuSans-Bold-4e" x="1799.021484"/>
     <use xlink:href="#DejaVuSans-Bold-41" x="1882.712891"/>
     <use xlink:href="#DejaVuSans-Bold-4c" x="1960.105469"/>
     <use xlink:href="#DejaVuSans-Bold-59" x="2008.201172"/>
     <use xlink:href="#DejaVuSans-Bold-53" x="2080.613281"/>
     <use xlink:href="#DejaVuSans-Bold-49" x="2152.634766"/>
     <use xlink:href="#DejaVuSans-Bold-53" x="2189.841797"/>
    </g>
   </g>
   <g id="text_10">
    <!-- Exploratory Data Analysis -->
    <g style="fill: #ffffff" transform="translate(285.327109 222.084) scale(0.11 -0.11)">
     <defs>
      <path id="DejaVuSans-78" d="M 3513 3500 
L 2247 1797 
L 3578 0 
L 2900 0 
L 1881 1375 
L 863 0 
L 184 0 
L 1544 1831 
L 300 3500 
L 978 3500 
L 1906 2253 
L 2834 3500 
L 3513 3500 
z
" transform="scale(0.015625)"/>
      <path id="DejaVuSans-70" d="M 1159 525 
L 1159 -1331 
L 581 -1331 
L 581 3500 
L 1159 3500 
L 1159 2969 
Q 1341 3281 1617 3432 
Q 1894 3584 2278 3584 
Q 2916 3584 3314 3078 
Q 3713 2572 3713 1747 
Q 3713 922 3314 415 
Q 2916 -91 2278 -91 
Q 1894 -91 1617 61 
Q 1341 213 1159 525 
z
M 3116 1747 
Q 3116 2381 2855 2742 
Q 2594 3103 2138 3103 
Q 1681 3103 1420 2742 
Q 1159 2381 1159 1747 
Q 1159 1113 1420 752 
Q 1681 391 2138 391 
Q 2594 391 2855 752 
Q 3116 1113 3116 1747 
z
" transform="scale(0.015625)"/>
      <path id="DejaVuSans-79" d="M 2059 -325 
Q 1816 -950 1584 -1140 
Q 1353 -1331 966 -1331 
L 506 -1331 
L 506 -850 
L 844 -850 
Q 1081 -850 1212 -737 
Q 1344 -625 1503 -206 
L 1606 56 
L 191 3500 
L 800 3500 
L 1894 763 
L 2988 3500 
L 3597 3500 
L 2059 -325 
z
" transform="scale(0.015625)"/>
      <path id="DejaVuSans-41" d="M 2188 4044 
L 1331 1722 
L 3047 1722 
L 2188 4044 
z
M 1831 4666 
L 2547 4666 
L 4325 0 
L 3669 0 
L 3244 1197 
L 1141 1197 
L 716 0 
L 50 0 
L 1831 4666 
z
" transform="scale(0.015625)"/>
     </defs>
     <use xlink:href="#DejaVuSans-45"/>
     <use xlink:href="#DejaVuSans-78" x="63.183594"/>
     <use xlink:href="#DejaVuSans-70" x="122.363281"/>
     <use xlink:href="#DejaVuSans-6c" x="185.839844"/>
     <use xlink:href="#DejaVuSans-6f" x="213.623047"/>
     <use xlink:href="#DejaVuSans-72" x="274.804688"/>
     <use xlink:href="#DejaVuSans-61" x="315.917969"/>
     <use xlink:href="#DejaVuSans-74" x="377.197266"/>
     <use xlink:href="#DejaVuSans-6f" x="416.40625"/>
     <use xlink:href="#DejaVuSans-72" x="477.587891"/>
     <use xlink:href="#DejaVuSans-79" x="518.701172"/>
     <use xlink:href="#DejaVuSans-20" x="577.880859"/>
     <use xlink:href="#DejaVuSans-44" x="609.667969"/>
     <use xlink:href="#DejaVuSans-61" x="686.669922"/>
     <use xlink:href="#DejaVuSans-74" x="747.949219"/>
     <use xlink:href="#DejaVuSans-61" x="787.158203"/>
     <use xlink:href="#DejaVuSans-20" x="848.4375"/>
     <use xlink:href="#DejaVuSans-41" x="880.224609"/>
     <use xlink:href="#DejaVuSans-6e" x="948.632812"/>
     <use xlink:href="#DejaVuSans-61" x="1012.011719"/>
     <use xlink:href="#DejaVuSans-6c" x="1073.291016"/>
     <use xlink:href="#DejaVuSans-79" x="1101.074219"/>
     <use xlink:href="#DejaVuSans-73" x="1160.253906"/>
     <use xlink:href="#DejaVuSans-69" x="1212.353516"/>
     <use xlink:href="#DejaVuSans-73" x="1240.136719"/>
    </g>
   </g>
   <g id="text_11">
    <!-- Distribution -->
    <g style="fill: #ffffff" transform="translate(205.031875 267.804) scale(0.07 -0.07)">
     <defs>
      <path id="DejaVuSans-62" d="M 3116 1747 
Q 3116 2381 2855 2742 
Q 2594 3103 2138 3103 
Q 1681 3103 1420 2742 
Q 1159 2381 1159 1747 
Q 1159 1113 1420 752 
Q 1681 391 2138 391 
Q 2594 391 2855 752 
Q 3116 1113 3116 1747 
z
M 1159 2969 
Q 1341 3281 1617 3432 
Q 1894 3584 2278 3584 
Q 2916 3584 3314 3078 
Q 3713 2572 3713 1747 
Q 3713 922 3314 415 
Q 2916 -91 2278 -91 
Q 1894 -91 1617 61 
Q 1341 213 1159 525 
L 1159 0 
L 581 0 
L 581 4863 
L 1159 4863 
L 1159 2969 
z
" transform="scale(0.015625)"/>
     </defs>
     <use xlink:href="#DejaVuSans-44"/>
     <use xlink:href="#DejaVuSans-69" x="77.001953"/>
     <use xlink:href="#DejaVuSans-73" x="104.785156"/>
     <use xlink:href="#DejaVuSans-74" x="156.884766"/>
     <use xlink:href="#DejaVuSans-72" x="196.09375"/>
     <use xlink:href="#DejaVuSans-69" x="237.207031"/>
     <use xlink:href="#DejaVuSans-62" x="264.990234"/>
     <use xlink:href="#DejaVuSans-75" x="328.466797"/>
     <use xlink:href="#DejaVuSans-74" x="391.845703"/>
     <use xlink:href="#DejaVuSans-69" x="431.054688"/>
     <use xlink:href="#DejaVuSans-6f" x="458.837891"/>
     <use xlink:href="#DejaVuSans-6e" x="520.019531"/>
    </g>
   </g>
   <g id="text_12">
    <!-- Correlation -->
    <g style="fill: #ffffff" transform="translate(271.626875 267.804) scale(0.07 -0.07)">
     <use xlink:href="#DejaVuSans-43"/>
     <use xlink:href="#DejaVuSans-6f" x="69.824219"/>
     <use xlink:href="#DejaVuSans-72" x="131.005859"/>
     <use xlink:href="#DejaVuSans-72" x="170.369141"/>
     <use xlink:href="#DejaVuSans-65" x="209.232422"/>
     <use xlink:href="#DejaVuSans-6c" x="270.755859"/>
     <use xlink:href="#DejaVuSans-61" x="298.539062"/>
     <use xlink:href="#DejaVuSans-74" x="359.818359"/>
     <use xlink:href="#DejaVuSans-69" x="399.027344"/>
     <use xlink:href="#DejaVuSans-6f" x="426.810547"/>
     <use xlink:href="#DejaVuSans-6e" x="487.992188"/>
    </g>
   </g>
   <g id="text_13">
    <!-- Time-Series -->
    <g style="fill: #ffffff" transform="translate(335.810156 267.804) scale(0.07 -0.07)">
     <defs>
      <path id="DejaVuSans-6d" d="M 3328 2828 
Q 3544 3216 3844 3400 
Q 4144 3584 4550 3584 
Q 5097 3584 5394 3201 
Q 5691 2819 5691 2113 
L 5691 0 
L 5113 0 
L 5113 2094 
Q 5113 2597 4934 2840 
Q 4756 3084 4391 3084 
Q 3944 3084 3684 2787 
Q 3425 2491 3425 1978 
L 3425 0 
L 2847 0 
L 2847 2094 
Q 2847 2600 2669 2842 
Q 2491 3084 2119 3084 
Q 1678 3084 1418 2786 
Q 1159 2488 1159 1978 
L 1159 0 
L 581 0 
L 581 3500 
L 1159 3500 
L 1159 2956 
Q 1356 3278 1631 3431 
Q 1906 3584 2284 3584 
Q 2666 3584 2933 3390 
Q 3200 3197 3328 2828 
z
" transform="scale(0.015625)"/>
      <path id="DejaVuSans-2d" d="M 313 2009 
L 1997 2009 
L 1997 1497 
L 313 1497 
L 313 2009 
z
" transform="scale(0.015625)"/>
     </defs>
     <use xlink:href="#DejaVuSans-54"/>
     <use xlink:href="#DejaVuSans-69" x="57.958984"/>
     <use xlink:href="#DejaVuSans-6d" x="85.742188"/>
     <use xlink:href="#DejaVuSans-65" x="183.154297"/>
     <use xlink:href="#DejaVuSans-2d" x="244.677734"/>
     <use xlink:href="#DejaVuSans-53" x="280.761719"/>
     <use xlink:href="#DejaVuSans-65" x="344.238281"/>
     <use xlink:href="#DejaVuSans-72" x="405.761719"/>
     <use xlink:href="#DejaVuSans-69" x="446.875"/>
     <use xlink:href="#DejaVuSans-65" x="474.658203"/>
     <use xlink:href="#DejaVuSans-73" x="536.181641"/>
    </g>
   </g>
   <g id="text_14">
    <!-- Feature Impact -->
    <g style="fill: #ffffff" transform="translate(395.434687 267.804) scale(0.07 -0.07)">
     <use xlink:href="#DejaVuSans-46"/>
     <use xlink:href="#DejaVuSans-65" x="52.019531"/>
     <use xlink:href="#DejaVuSans-61" x="113.542969"/>
     <use xlink:href="#DejaVuSans-74" x="174.822266"/>
     <use xlink:href="#DejaVuSans-75" x="214.03125"/>
     <use xlink:href="#DejaVuSans-72" x="277.410156"/>
     <use xlink:href="#DejaVuSans-65" x="316.273438"/>
     <use xlink:href="#DejaVuSans-20" x="377.796875"/>
     <use xlink:href="#DejaVuSans-49" x="409.583984"/>
     <use xlink:href="#DejaVuSans-6d" x="439.076172"/>
     <use xlink:href="#DejaVuSans-70" x="536.488281"/>
     <use xlink:href="#DejaVuSans-61" x="599.964844"/>
     <use xlink:href="#DejaVuSans-63" x="661.244141"/>
     <use xlink:href="#DejaVuSans-74" x="716.224609"/>
    </g>
   </g>
   <g id="text_15">
    <!-- Stats Summary -->
    <g style="fill: #ffffff" transform="translate(460.389609 267.804) scale(0.07 -0.07)">
     <use xlink:href="#DejaVuSans-53"/>
     <use xlink:href="#DejaVuSans-74" x="63.476562"/>
     <use xlink:href="#DejaVuSans-61" x="102.685547"/>
     <use xlink:href="#DejaVuSans-74" x="163.964844"/>
     <use xlink:href="#DejaVuSans-73" x="203.173828"/>
     <use xlink:href="#DejaVuSans-20" x="255.273438"/>
     <use xlink:href="#DejaVuSans-53" x="287.060547"/>
     <use xlink:href="#DejaVuSans-75" x="350.537109"/>
     <use xlink:href="#DejaVuSans-6d" x="413.916016"/>
     <use xlink:href="#DejaVuSans-6d" x="511.328125"/>
     <use xlink:href="#DejaVuSans-61" x="608.740234"/>
     <use xlink:href="#DejaVuSans-72" x="670.019531"/>
     <use xlink:href="#DejaVuSans-79" x="711.132812"/>
    </g>
   </g>
   <g id="text_16">
    <g id="patch_24">
     <path d="M 254.030391 340.871656 
L 458.769609 340.871656 
Q 460.969609 340.871656 460.969609 338.671656 
L 460.969609 328.025719 
Q 460.969609 325.825719 458.769609 325.825719 
L 254.030391 325.825719 
Q 251.830391 325.825719 251.830391 328.025719 
L 251.830391 338.671656 
Q 251.830391 340.871656 254.030391 340.871656 
z
" style="fill: #ecf0f1; stroke: #000000; stroke-linejoin: miter"/>
    </g>
    <!-- PHASE 3: FEATURE ENGINEERING -->
    <g transform="translate(254.030391 336.384) scale(0.11 -0.11)">
     <defs>
      <path id="DejaVuSans-Bold-33" d="M 2981 2516 
Q 3453 2394 3698 2092 
Q 3944 1791 3944 1325 
Q 3944 631 3412 270 
Q 2881 -91 1863 -91 
Q 1503 -91 1142 -33 
Q 781 25 428 141 
L 428 1069 
Q 766 900 1098 814 
Q 1431 728 1753 728 
Q 2231 728 2486 893 
Q 2741 1059 2741 1369 
Q 2741 1688 2480 1852 
Q 2219 2016 1709 2016 
L 1228 2016 
L 1228 2791 
L 1734 2791 
Q 2188 2791 2409 2933 
Q 2631 3075 2631 3366 
Q 2631 3634 2415 3781 
Q 2200 3928 1806 3928 
Q 1516 3928 1219 3862 
Q 922 3797 628 3669 
L 628 4550 
Q 984 4650 1334 4700 
Q 1684 4750 2022 4750 
Q 2931 4750 3382 4451 
Q 3834 4153 3834 3553 
Q 3834 3144 3618 2883 
Q 3403 2622 2981 2516 
z
" transform="scale(0.015625)"/>
      <path id="DejaVuSans-Bold-46" d="M 588 4666 
L 3834 4666 
L 3834 3756 
L 1791 3756 
L 1791 2888 
L 3713 2888 
L 3713 1978 
L 1791 1978 
L 1791 0 
L 588 0 
L 588 4666 
z
" transform="scale(0.015625)"/>
      <path id="DejaVuSans-Bold-55" d="M 588 4666 
L 1791 4666 
L 1791 1869 
Q 1791 1291 1980 1042 
Q 2169 794 2597 794 
Q 3028 794 3217 1042 
Q 3406 1291 3406 1869 
L 3406 4666 
L 4609 4666 
L 4609 1869 
Q 4609 878 4112 393 
Q 3616 -91 2597 -91 
Q 1581 -91 1084 393 
Q 588 878 588 1869 
L 588 4666 
z
" transform="scale(0.015625)"/>
      <path id="DejaVuSans-Bold-47" d="M 4781 347 
Q 4331 128 3847 18 
Q 3363 -91 2847 -91 
Q 1681 -91 1000 561 
Q 319 1213 319 2328 
Q 319 3456 1012 4103 
Q 1706 4750 2913 4750 
Q 3378 4750 3804 4662 
Q 4231 4575 4609 4403 
L 4609 3438 
Q 4219 3659 3833 3768 
Q 3447 3878 3059 3878 
Q 2341 3878 1952 3476 
Q 1563 3075 1563 2328 
Q 1563 1588 1938 1184 
Q 2313 781 3003 781 
Q 3191 781 3352 804 
Q 3513 828 3641 878 
L 3641 1784 
L 2906 1784 
L 2906 2591 
L 4781 2591 
L 4781 347 
z
" transform="scale(0.015625)"/>
     </defs>
     <use xlink:href="#DejaVuSans-Bold-50"/>
     <use xlink:href="#DejaVuSans-Bold-48" x="73.291016"/>
     <use xlink:href="#DejaVuSans-Bold-41" x="156.982422"/>
     <use xlink:href="#DejaVuSans-Bold-53" x="234.375"/>
     <use xlink:href="#DejaVuSans-Bold-45" x="306.396484"/>
     <use xlink:href="#DejaVuSans-Bold-20" x="374.707031"/>
     <use xlink:href="#DejaVuSans-Bold-33" x="409.521484"/>
     <use xlink:href="#DejaVuSans-Bold-3a" x="479.101562"/>
     <use xlink:href="#DejaVuSans-Bold-20" x="519.091797"/>
     <use xlink:href="#DejaVuSans-Bold-46" x="553.90625"/>
     <use xlink:href="#DejaVuSans-Bold-45" x="622.216797"/>
     <use xlink:href="#DejaVuSans-Bold-41" x="690.527344"/>
     <use xlink:href="#DejaVuSans-Bold-54" x="760.169922"/>
     <use xlink:href="#DejaVuSans-Bold-55" x="828.382812"/>
     <use xlink:href="#DejaVuSans-Bold-52" x="909.583984"/>
     <use xlink:href="#DejaVuSans-Bold-45" x="986.585938"/>
     <use xlink:href="#DejaVuSans-Bold-20" x="1054.896484"/>
     <use xlink:href="#DejaVuSans-Bold-45" x="1089.710938"/>
     <use xlink:href="#DejaVuSans-Bold-4e" x="1158.021484"/>
     <use xlink:href="#DejaVuSans-Bold-47" x="1241.712891"/>
     <use xlink:href="#DejaVuSans-Bold-49" x="1323.792969"/>
     <use xlink:href="#DejaVuSans-Bold-4e" x="1361"/>
     <use xlink:href="#DejaVuSans-Bold-45" x="1444.691406"/>
     <use xlink:href="#DejaVuSans-Bold-45" x="1513.001953"/>
     <use xlink:href="#DejaVuSans-Bold-52" x="1581.3125"/>
     <use xlink:href="#DejaVuSans-Bold-49" x="1658.314453"/>
     <use xlink:href="#DejaVuSans-Bold-4e" x="1695.521484"/>
     <use xlink:href="#DejaVuSans-Bold-47" x="1779.212891"/>
    </g>
   </g>
   <g id="text_17">
    <!-- Advanced Feature Engineering -->
    <g style="fill: #ffffff" transform="translate(271.955234 359.244) scale(0.11 -0.11)">
     <defs>
      <path id="DejaVuSans-64" d="M 2906 2969 
L 2906 4863 
L 3481 4863 
L 3481 0 
L 2906 0 
L 2906 525 
Q 2725 213 2448 61 
Q 2172 -91 1784 -91 
Q 1150 -91 751 415 
Q 353 922 353 1747 
Q 353 2572 751 3078 
Q 1150 3584 1784 3584 
Q 2172 3584 2448 3432 
Q 2725 3281 2906 2969 
z
M 947 1747 
Q 947 1113 1208 752 
Q 1469 391 1925 391 
Q 2381 391 2643 752 
Q 2906 1113 2906 1747 
Q 2906 2381 2643 2742 
Q 2381 3103 1925 3103 
Q 1469 3103 1208 2742 
Q 947 2381 947 1747 
z
" transform="scale(0.015625)"/>
     </defs>
     <use xlink:href="#DejaVuSans-41"/>
     <use xlink:href="#DejaVuSans-64" x="66.658203"/>
     <use xlink:href="#DejaVuSans-76" x="130.134766"/>
     <use xlink:href="#DejaVuSans-61" x="189.314453"/>
     <use xlink:href="#DejaVuSans-6e" x="250.59375"/>
     <use xlink:href="#DejaVuSans-63" x="313.972656"/>
     <use xlink:href="#DejaVuSans-65" x="368.953125"/>
     <use xlink:href="#DejaVuSans-64" x="430.476562"/>
     <use xlink:href="#DejaVuSans-20" x="493.953125"/>
     <use xlink:href="#DejaVuSans-46" x="525.740234"/>
     <use xlink:href="#DejaVuSans-65" x="577.759766"/>
     <use xlink:href="#DejaVuSans-61" x="639.283203"/>
     <use xlink:href="#DejaVuSans-74" x="700.5625"/>
     <use xlink:href="#DejaVuSans-75" x="739.771484"/>
     <use xlink:href="#DejaVuSans-72" x="803.150391"/>
     <use xlink:href="#DejaVuSans-65" x="842.013672"/>
     <use xlink:href="#DejaVuSans-20" x="903.537109"/>
     <use xlink:href="#DejaVuSans-45" x="935.324219"/>
     <use xlink:href="#DejaVuSans-6e" x="998.507812"/>
     <use xlink:href="#DejaVuSans-67" x="1061.886719"/>
     <use xlink:href="#DejaVuSans-69" x="1125.363281"/>
     <use xlink:href="#DejaVuSans-6e" x="1153.146484"/>
     <use xlink:href="#DejaVuSans-65" x="1216.525391"/>
     <use xlink:href="#DejaVuSans-65" x="1278.048828"/>
     <use xlink:href="#DejaVuSans-72" x="1339.572266"/>
     <use xlink:href="#DejaVuSans-69" x="1380.685547"/>
     <use xlink:href="#DejaVuSans-6e" x="1408.46875"/>
     <use xlink:href="#DejaVuSans-67" x="1471.847656"/>
    </g>
   </g>
   <g id="text_18">
    <!-- Time Features -->
    <g style="fill: #ffffff" transform="translate(200.727969 400.392) scale(0.07 -0.07)">
     <use xlink:href="#DejaVuSans-54"/>
     <use xlink:href="#DejaVuSans-69" x="57.958984"/>
     <use xlink:href="#DejaVuSans-6d" x="85.742188"/>
     <use xlink:href="#DejaVuSans-65" x="183.154297"/>
     <use xlink:href="#DejaVuSans-20" x="244.677734"/>
     <use xlink:href="#DejaVuSans-46" x="276.464844"/>
     <use xlink:href="#DejaVuSans-65" x="328.484375"/>
     <use xlink:href="#DejaVuSans-61" x="390.007812"/>
     <use xlink:href="#DejaVuSans-74" x="451.287109"/>
     <use xlink:href="#DejaVuSans-75" x="490.496094"/>
     <use xlink:href="#DejaVuSans-72" x="553.875"/>
     <use xlink:href="#DejaVuSans-65" x="592.738281"/>
     <use xlink:href="#DejaVuSans-73" x="654.261719"/>
    </g>
   </g>
   <g id="text_19">
    <!-- Transforms -->
    <g style="fill: #ffffff" transform="translate(271.694687 400.392) scale(0.07 -0.07)">
     <defs>
      <path id="DejaVuSans-66" d="M 2375 4863 
L 2375 4384 
L 1825 4384 
Q 1516 4384 1395 4259 
Q 1275 4134 1275 3809 
L 1275 3500 
L 2222 3500 
L 2222 3053 
L 1275 3053 
L 1275 0 
L 697 0 
L 697 3053 
L 147 3053 
L 147 3500 
L 697 3500 
L 697 3744 
Q 697 4328 969 4595 
Q 1241 4863 1831 4863 
L 2375 4863 
z
" transform="scale(0.015625)"/>
     </defs>
     <use xlink:href="#DejaVuSans-54"/>
     <use xlink:href="#DejaVuSans-72" x="46.333984"/>
     <use xlink:href="#DejaVuSans-61" x="87.447266"/>
     <use xlink:href="#DejaVuSans-6e" x="148.726562"/>
     <use xlink:href="#DejaVuSans-73" x="212.105469"/>
     <use xlink:href="#DejaVuSans-66" x="264.205078"/>
     <use xlink:href="#DejaVuSans-6f" x="299.410156"/>
     <use xlink:href="#DejaVuSans-72" x="360.591797"/>
     <use xlink:href="#DejaVuSans-6d" x="399.955078"/>
     <use xlink:href="#DejaVuSans-73" x="497.367188"/>
    </g>
   </g>
   <g id="text_20">
    <!-- Interactions -->
    <g style="fill: #ffffff" transform="translate(335.588125 400.392) scale(0.07 -0.07)">
     <use xlink:href="#DejaVuSans-49"/>
     <use xlink:href="#DejaVuSans-6e" x="29.492188"/>
     <use xlink:href="#DejaVuSans-74" x="92.871094"/>
     <use xlink:href="#DejaVuSans-65" x="132.080078"/>
     <use xlink:href="#DejaVuSans-72" x="193.603516"/>
     <use xlink:href="#DejaVuSans-61" x="234.716797"/>
     <use xlink:href="#DejaVuSans-63" x="295.996094"/>
     <use xlink:href="#DejaVuSans-74" x="350.976562"/>
     <use xlink:href="#DejaVuSans-69" x="390.185547"/>
     <use xlink:href="#DejaVuSans-6f" x="417.96875"/>
     <use xlink:href="#DejaVuSans-6e" x="479.150391"/>
     <use xlink:href="#DejaVuSans-73" x="542.529297"/>
    </g>
   </g>
   <g id="text_21">
    <!-- Encoding -->
    <g style="fill: #ffffff" transform="translate(405.744922 400.392) scale(0.07 -0.07)">
     <use xlink:href="#DejaVuSans-45"/>
     <use xlink:href="#DejaVuSans-6e" x="63.183594"/>
     <use xlink:href="#DejaVuSans-63" x="126.5625"/>
     <use xlink:href="#DejaVuSans-6f" x="181.542969"/>
     <use xlink:href="#DejaVuSans-64" x="242.724609"/>
     <use xlink:href="#DejaVuSans-69" x="306.201172"/>
     <use xlink:href="#DejaVuSans-6e" x="333.984375"/>
     <use xlink:href="#DejaVuSans-67" x="397.363281"/>
    </g>
   </g>
   <g id="text_22">
    <!-- Feature Selection -->
    <g style="fill: #ffffff" transform="translate(456.884687 400.392) scale(0.07 -0.07)">
     <use xlink:href="#DejaVuSans-46"/>
     <use xlink:href="#DejaVuSans-65" x="52.019531"/>
     <use xlink:href="#DejaVuSans-61" x="113.542969"/>
     <use xlink:href="#DejaVuSans-74" x="174.822266"/>
     <use xlink:href="#DejaVuSans-75" x="214.03125"/>
     <use xlink:href="#DejaVuSans-72" x="277.410156"/>
     <use xlink:href="#DejaVuSans-65" x="316.273438"/>
     <use xlink:href="#DejaVuSans-20" x="377.796875"/>
     <use xlink:href="#DejaVuSans-53" x="409.583984"/>
     <use xlink:href="#DejaVuSans-65" x="473.060547"/>
     <use xlink:href="#DejaVuSans-6c" x="534.583984"/>
     <use xlink:href="#DejaVuSans-65" x="562.367188"/>
     <use xlink:href="#DejaVuSans-63" x="623.890625"/>
     <use xlink:href="#DejaVuSans-74" x="678.871094"/>
     <use xlink:href="#DejaVuSans-69" x="718.080078"/>
     <use xlink:href="#DejaVuSans-6f" x="745.863281"/>
     <use xlink:href="#DejaVuSans-6e" x="807.044922"/>
    </g>
   </g>
   <g id="text_23">
    <g id="patch_25">
     <path d="M 217.42875 478.031656 
L 495.37125 478.031656 
Q 497.57125 478.031656 497.57125 475.831656 
L 497.57125 465.185719 
Q 497.57125 462.985719 495.37125 462.985719 
L 217.42875 462.985719 
Q 215.22875 462.985719 215.22875 465.185719 
L 215.22875 475.831656 
Q 215.22875 478.031656 217.42875 478.031656 
z
" style="fill: #ecf0f1; stroke: #000000; stroke-linejoin: miter"/>
    </g>
    <!-- PHASE 4: MODEL DEVELOPMENT &amp; TRAINING -->
    <g transform="translate(217.42875 473.544) scale(0.11 -0.11)">
     <defs>
      <path id="DejaVuSans-Bold-34" d="M 2356 3675 
L 1038 1722 
L 2356 1722 
L 2356 3675 
z
M 2156 4666 
L 3494 4666 
L 3494 1722 
L 4159 1722 
L 4159 850 
L 3494 850 
L 3494 0 
L 2356 0 
L 2356 850 
L 288 850 
L 288 1881 
L 2156 4666 
z
" transform="scale(0.015625)"/>
      <path id="DejaVuSans-Bold-56" d="M 31 4666 
L 1241 4666 
L 2478 1222 
L 3713 4666 
L 4922 4666 
L 3194 0 
L 1759 0 
L 31 4666 
z
" transform="scale(0.015625)"/>
     </defs>
     <use xlink:href="#DejaVuSans-Bold-50"/>
     <use xlink:href="#DejaVuSans-Bold-48" x="73.291016"/>
     <use xlink:href="#DejaVuSans-Bold-41" x="156.982422"/>
     <use xlink:href="#DejaVuSans-Bold-53" x="234.375"/>
     <use xlink:href="#DejaVuSans-Bold-45" x="306.396484"/>
     <use xlink:href="#DejaVuSans-Bold-20" x="374.707031"/>
     <use xlink:href="#DejaVuSans-Bold-34" x="409.521484"/>
     <use xlink:href="#DejaVuSans-Bold-3a" x="479.101562"/>
     <use xlink:href="#DejaVuSans-Bold-20" x="519.091797"/>
     <use xlink:href="#DejaVuSans-Bold-4d" x="553.90625"/>
     <use xlink:href="#DejaVuSans-Bold-4f" x="653.417969"/>
     <use xlink:href="#DejaVuSans-Bold-44" x="738.427734"/>
     <use xlink:href="#DejaVuSans-Bold-45" x="821.435547"/>
     <use xlink:href="#DejaVuSans-Bold-4c" x="889.746094"/>
     <use xlink:href="#DejaVuSans-Bold-20" x="953.466797"/>
     <use xlink:href="#DejaVuSans-Bold-44" x="988.28125"/>
     <use xlink:href="#DejaVuSans-Bold-45" x="1071.289062"/>
     <use xlink:href="#DejaVuSans-Bold-56" x="1139.599609"/>
     <use xlink:href="#DejaVuSans-Bold-45" x="1216.992188"/>
     <use xlink:href="#DejaVuSans-Bold-4c" x="1285.302734"/>
     <use xlink:href="#DejaVuSans-Bold-4f" x="1345.398438"/>
     <use xlink:href="#DejaVuSans-Bold-50" x="1430.408203"/>
     <use xlink:href="#DejaVuSans-Bold-4d" x="1503.699219"/>
     <use xlink:href="#DejaVuSans-Bold-45" x="1603.210938"/>
     <use xlink:href="#DejaVuSans-Bold-4e" x="1671.521484"/>
     <use xlink:href="#DejaVuSans-Bold-54" x="1755.212891"/>
     <use xlink:href="#DejaVuSans-Bold-20" x="1823.425781"/>
     <use xlink:href="#DejaVuSans-Bold-26" x="1858.240234"/>
     <use xlink:href="#DejaVuSans-Bold-20" x="1945.447266"/>
     <use xlink:href="#DejaVuSans-Bold-54" x="1980.261719"/>
     <use xlink:href="#DejaVuSans-Bold-52" x="2048.474609"/>
     <use xlink:href="#DejaVuSans-Bold-41" x="2125.476562"/>
     <use xlink:href="#DejaVuSans-Bold-49" x="2202.869141"/>
     <use xlink:href="#DejaVuSans-Bold-4e" x="2240.076172"/>
     <use xlink:href="#DejaVuSans-Bold-49" x="2323.767578"/>
     <use xlink:href="#DejaVuSans-Bold-4e" x="2360.974609"/>
     <use xlink:href="#DejaVuSans-Bold-47" x="2444.666016"/>
    </g>
   </g>
   <g id="text_24">
    <!-- Train / Val / Test Split -->
    <g style="fill: #ffffff" transform="translate(91.596797 496.404) scale(0.09 -0.09)">
     <defs>
      <path id="DejaVuSans-2f" d="M 1625 4666 
L 2156 4666 
L 531 -594 
L 0 -594 
L 1625 4666 
z
" transform="scale(0.015625)"/>
     </defs>
     <use xlink:href="#DejaVuSans-54"/>
     <use xlink:href="#DejaVuSans-72" x="46.333984"/>
     <use xlink:href="#DejaVuSans-61" x="87.447266"/>
     <use xlink:href="#DejaVuSans-69" x="148.726562"/>
     <use xlink:href="#DejaVuSans-6e" x="176.509766"/>
     <use xlink:href="#DejaVuSans-20" x="239.888672"/>
     <use xlink:href="#DejaVuSans-2f" x="271.675781"/>
     <use xlink:href="#DejaVuSans-20" x="305.367188"/>
     <use xlink:href="#DejaVuSans-56" x="337.154297"/>
     <use xlink:href="#DejaVuSans-61" x="397.8125"/>
     <use xlink:href="#DejaVuSans-6c" x="459.091797"/>
     <use xlink:href="#DejaVuSans-20" x="486.875"/>
     <use xlink:href="#DejaVuSans-2f" x="518.662109"/>
     <use xlink:href="#DejaVuSans-20" x="552.353516"/>
     <use xlink:href="#DejaVuSans-54" x="584.140625"/>
     <use xlink:href="#DejaVuSans-65" x="628.224609"/>
     <use xlink:href="#DejaVuSans-73" x="689.748047"/>
     <use xlink:href="#DejaVuSans-74" x="741.847656"/>
     <use xlink:href="#DejaVuSans-20" x="781.056641"/>
     <use xlink:href="#DejaVuSans-53" x="812.84375"/>
     <use xlink:href="#DejaVuSans-70" x="876.320312"/>
     <use xlink:href="#DejaVuSans-6c" x="939.796875"/>
     <use xlink:href="#DejaVuSans-69" x="967.580078"/>
     <use xlink:href="#DejaVuSans-74" x="995.363281"/>
    </g>
   </g>
   <g id="text_25">
    <!-- Model Training &amp; Tuning -->
    <g style="fill: #ffffff" transform="translate(305.357344 491.832) scale(0.1 -0.1)">
     <defs>
      <path id="DejaVuSans-26" d="M 1556 2509 
Q 1272 2256 1139 2004 
Q 1006 1753 1006 1478 
Q 1006 1022 1337 719 
Q 1669 416 2169 416 
Q 2466 416 2725 514 
Q 2984 613 3213 813 
L 1556 2509 
z
M 1997 2859 
L 3584 1234 
Q 3769 1513 3872 1830 
Q 3975 2147 3994 2503 
L 4575 2503 
Q 4538 2091 4375 1687 
Q 4213 1284 3922 891 
L 4794 0 
L 4006 0 
L 3559 459 
Q 3234 181 2878 45 
Q 2522 -91 2113 -91 
Q 1359 -91 881 339 
Q 403 769 403 1441 
Q 403 1841 612 2192 
Q 822 2544 1241 2853 
Q 1091 3050 1012 3245 
Q 934 3441 934 3628 
Q 934 4134 1281 4442 
Q 1628 4750 2203 4750 
Q 2463 4750 2720 4694 
Q 2978 4638 3244 4525 
L 3244 3956 
Q 2972 4103 2725 4179 
Q 2478 4256 2266 4256 
Q 1938 4256 1733 4082 
Q 1528 3909 1528 3634 
Q 1528 3475 1620 3314 
Q 1713 3153 1997 2859 
z
" transform="scale(0.015625)"/>
     </defs>
     <use xlink:href="#DejaVuSans-4d"/>
     <use xlink:href="#DejaVuSans-6f" x="86.279297"/>
     <use xlink:href="#DejaVuSans-64" x="147.460938"/>
     <use xlink:href="#DejaVuSans-65" x="210.9375"/>
     <use xlink:href="#DejaVuSans-6c" x="272.460938"/>
     <use xlink:href="#DejaVuSans-20" x="300.244141"/>
     <use xlink:href="#DejaVuSans-54" x="332.03125"/>
     <use xlink:href="#DejaVuSans-72" x="378.365234"/>
     <use xlink:href="#DejaVuSans-61" x="419.478516"/>
     <use xlink:href="#DejaVuSans-69" x="480.757812"/>
     <use xlink:href="#DejaVuSans-6e" x="508.541016"/>
     <use xlink:href="#DejaVuSans-69" x="571.919922"/>
     <use xlink:href="#DejaVuSans-6e" x="599.703125"/>
     <use xlink:href="#DejaVuSans-67" x="663.082031"/>
     <use xlink:href="#DejaVuSans-20" x="726.558594"/>
     <use xlink:href="#DejaVuSans-26" x="758.345703"/>
     <use xlink:href="#DejaVuSans-20" x="836.324219"/>
     <use xlink:href="#DejaVuSans-54" x="868.111328"/>
     <use xlink:href="#DejaVuSans-75" x="914.070312"/>
     <use xlink:href="#DejaVuSans-6e" x="977.449219"/>
     <use xlink:href="#DejaVuSans-69" x="1040.828125"/>
     <use xlink:href="#DejaVuSans-6e" x="1068.611328"/>
     <use xlink:href="#DejaVuSans-67" x="1131.990234"/>
    </g>
   </g>
   <g id="text_26">
    <!-- Linear Reg -->
    <g style="fill: #ffffff" transform="translate(346.489766 505.548) scale(0.07 -0.07)">
     <use xlink:href="#DejaVuSans-4c"/>
     <use xlink:href="#DejaVuSans-69" x="55.712891"/>
     <use xlink:href="#DejaVuSans-6e" x="83.496094"/>
     <use xlink:href="#DejaVuSans-65" x="146.875"/>
     <use xlink:href="#DejaVuSans-61" x="208.398438"/>
     <use xlink:href="#DejaVuSans-72" x="269.677734"/>
     <use xlink:href="#DejaVuSans-20" x="310.791016"/>
     <use xlink:href="#DejaVuSans-52" x="342.578125"/>
     <use xlink:href="#DejaVuSans-65" x="407.560547"/>
     <use xlink:href="#DejaVuSans-67" x="469.083984"/>
    </g>
   </g>
   <g id="text_27">
    <!-- Ridge/Lasso -->
    <g style="fill: #ffffff" transform="translate(344.066016 516.978) scale(0.07 -0.07)">
     <use xlink:href="#DejaVuSans-52"/>
     <use xlink:href="#DejaVuSans-69" x="69.482422"/>
     <use xlink:href="#DejaVuSans-64" x="97.265625"/>
     <use xlink:href="#DejaVuSans-67" x="160.742188"/>
     <use xlink:href="#DejaVuSans-65" x="224.21875"/>
     <use xlink:href="#DejaVuSans-2f" x="285.742188"/>
     <use xlink:href="#DejaVuSans-4c" x="319.433594"/>
     <use xlink:href="#DejaVuSans-61" x="375.146484"/>
     <use xlink:href="#DejaVuSans-73" x="436.425781"/>
     <use xlink:href="#DejaVuSans-73" x="488.525391"/>
     <use xlink:href="#DejaVuSans-6f" x="540.625"/>
    </g>
   </g>
   <g id="text_28">
    <!-- Random Forest -->
    <g style="fill: #ffffff" transform="translate(338.791953 528.408) scale(0.07 -0.07)">
     <use xlink:href="#DejaVuSans-52"/>
     <use xlink:href="#DejaVuSans-61" x="67.232422"/>
     <use xlink:href="#DejaVuSans-6e" x="128.511719"/>
     <use xlink:href="#DejaVuSans-64" x="191.890625"/>
     <use xlink:href="#DejaVuSans-6f" x="255.367188"/>
     <use xlink:href="#DejaVuSans-6d" x="316.548828"/>
     <use xlink:href="#DejaVuSans-20" x="413.960938"/>
     <use xlink:href="#DejaVuSans-46" x="445.748047"/>
     <use xlink:href="#DejaVuSans-6f" x="499.642578"/>
     <use xlink:href="#DejaVuSans-72" x="560.824219"/>
     <use xlink:href="#DejaVuSans-65" x="599.6875"/>
     <use xlink:href="#DejaVuSans-73" x="661.210938"/>
     <use xlink:href="#DejaVuSans-74" x="713.310547"/>
    </g>
   </g>
   <g id="text_29">
    <!-- XGBoost -->
    <g style="fill: #ffffff" transform="translate(350.140703 539.838) scale(0.07 -0.07)">
     <defs>
      <path id="DejaVuSans-58" d="M 403 4666 
L 1081 4666 
L 2241 2931 
L 3406 4666 
L 4084 4666 
L 2584 2425 
L 4184 0 
L 3506 0 
L 2194 1984 
L 872 0 
L 191 0 
L 1856 2491 
L 403 4666 
z
" transform="scale(0.015625)"/>
      <path id="DejaVuSans-42" d="M 1259 2228 
L 1259 519 
L 2272 519 
Q 2781 519 3026 730 
Q 3272 941 3272 1375 
Q 3272 1813 3026 2020 
Q 2781 2228 2272 2228 
L 1259 2228 
z
M 1259 4147 
L 1259 2741 
L 2194 2741 
Q 2656 2741 2882 2914 
Q 3109 3088 3109 3444 
Q 3109 3797 2882 3972 
Q 2656 4147 2194 4147 
L 1259 4147 
z
M 628 4666 
L 2241 4666 
Q 2963 4666 3353 4366 
Q 3744 4066 3744 3513 
Q 3744 3084 3544 2831 
Q 3344 2578 2956 2516 
Q 3422 2416 3680 2098 
Q 3938 1781 3938 1306 
Q 3938 681 3513 340 
Q 3088 0 2303 0 
L 628 0 
L 628 4666 
z
" transform="scale(0.015625)"/>
     </defs>
     <use xlink:href="#DejaVuSans-58"/>
     <use xlink:href="#DejaVuSans-47" x="68.505859"/>
     <use xlink:href="#DejaVuSans-42" x="145.996094"/>
     <use xlink:href="#DejaVuSans-6f" x="214.599609"/>
     <use xlink:href="#DejaVuSans-6f" x="275.78125"/>
     <use xlink:href="#DejaVuSans-73" x="336.962891"/>
     <use xlink:href="#DejaVuSans-74" x="389.0625"/>
    </g>
   </g>
   <g id="text_30">
    <!-- LightGBM -->
    <g style="fill: #ffffff" transform="translate(348.262187 551.268) scale(0.07 -0.07)">
     <use xlink:href="#DejaVuSans-4c"/>
     <use xlink:href="#DejaVuSans-69" x="55.712891"/>
     <use xlink:href="#DejaVuSans-67" x="83.496094"/>
     <use xlink:href="#DejaVuSans-68" x="146.972656"/>
     <use xlink:href="#DejaVuSans-74" x="210.351562"/>
     <use xlink:href="#DejaVuSans-47" x="249.560547"/>
     <use xlink:href="#DejaVuSans-42" x="327.050781"/>
     <use xlink:href="#DejaVuSans-4d" x="395.654297"/>
    </g>
   </g>
   <g id="text_31">
    <!-- SVR -->
    <g style="fill: #ffffff" transform="translate(358.081875 562.698) scale(0.07 -0.07)">
     <use xlink:href="#DejaVuSans-53"/>
     <use xlink:href="#DejaVuSans-56" x="63.476562"/>
     <use xlink:href="#DejaVuSans-52" x="131.884766"/>
    </g>
   </g>
   <g id="text_32">
    <g id="patch_26">
     <path d="M 518.016406 491.339688 
L 631.283594 491.339688 
Q 633.283594 491.339688 633.283594 489.339688 
L 633.283594 468.46375 
Q 633.283594 466.46375 631.283594 466.46375 
L 518.016406 466.46375 
Q 516.016406 466.46375 516.016406 468.46375 
L 516.016406 489.339688 
Q 516.016406 491.339688 518.016406 491.339688 
z
" style="fill: #ecf0f1; stroke: #000000; stroke-linejoin: miter"/>
    </g>
    <!-- PHASE 5: -->
    <g transform="translate(548.696094 476.062188) scale(0.1 -0.1)">
     <defs>
      <path id="DejaVuSans-Bold-35" d="M 678 4666 
L 3669 4666 
L 3669 3781 
L 1638 3781 
L 1638 3059 
Q 1775 3097 1914 3117 
Q 2053 3138 2203 3138 
Q 3056 3138 3531 2711 
Q 4006 2284 4006 1522 
Q 4006 766 3489 337 
Q 2972 -91 2053 -91 
Q 1656 -91 1267 -14 
Q 878 63 494 219 
L 494 1166 
Q 875 947 1217 837 
Q 1559 728 1863 728 
Q 2300 728 2551 942 
Q 2803 1156 2803 1522 
Q 2803 1891 2551 2103 
Q 2300 2316 1863 2316 
Q 1603 2316 1309 2248 
Q 1016 2181 678 2041 
L 678 4666 
z
" transform="scale(0.015625)"/>
     </defs>
     <use xlink:href="#DejaVuSans-Bold-50"/>
     <use xlink:href="#DejaVuSans-Bold-48" x="73.291016"/>
     <use xlink:href="#DejaVuSans-Bold-41" x="156.982422"/>
     <use xlink:href="#DejaVuSans-Bold-53" x="234.375"/>
     <use xlink:href="#DejaVuSans-Bold-45" x="306.396484"/>
     <use xlink:href="#DejaVuSans-Bold-20" x="374.707031"/>
     <use xlink:href="#DejaVuSans-Bold-35" x="409.521484"/>
     <use xlink:href="#DejaVuSans-Bold-3a" x="479.101562"/>
    </g>
    <!-- MODEL EVALUATION -->
    <g transform="translate(518.016406 487.26) scale(0.1 -0.1)">
     <use xlink:href="#DejaVuSans-Bold-4d"/>
     <use xlink:href="#DejaVuSans-Bold-4f" x="99.511719"/>
     <use xlink:href="#DejaVuSans-Bold-44" x="184.521484"/>
     <use xlink:href="#DejaVuSans-Bold-45" x="267.529297"/>
     <use xlink:href="#DejaVuSans-Bold-4c" x="335.839844"/>
     <use xlink:href="#DejaVuSans-Bold-20" x="399.560547"/>
     <use xlink:href="#DejaVuSans-Bold-45" x="434.375"/>
     <use xlink:href="#DejaVuSans-Bold-56" x="502.685547"/>
     <use xlink:href="#DejaVuSans-Bold-41" x="573.328125"/>
     <use xlink:href="#DejaVuSans-Bold-4c" x="650.720703"/>
     <use xlink:href="#DejaVuSans-Bold-55" x="710.816406"/>
     <use xlink:href="#DejaVuSans-Bold-41" x="788.892578"/>
     <use xlink:href="#DejaVuSans-Bold-54" x="858.535156"/>
     <use xlink:href="#DejaVuSans-Bold-49" x="926.748047"/>
     <use xlink:href="#DejaVuSans-Bold-4f" x="963.955078"/>
     <use xlink:href="#DejaVuSans-Bold-4e" x="1048.964844"/>
    </g>
   </g>
   <g id="text_33">
    <!-- Evaluation Metrics -->
    <g style="fill: #ffffff" transform="translate(528.529688 500.976) scale(0.1 -0.1)">
     <use xlink:href="#DejaVuSans-45"/>
     <use xlink:href="#DejaVuSans-76" x="63.183594"/>
     <use xlink:href="#DejaVuSans-61" x="122.363281"/>
     <use xlink:href="#DejaVuSans-6c" x="183.642578"/>
     <use xlink:href="#DejaVuSans-75" x="211.425781"/>
     <use xlink:href="#DejaVuSans-61" x="274.804688"/>
     <use xlink:href="#DejaVuSans-74" x="336.083984"/>
     <use xlink:href="#DejaVuSans-69" x="375.292969"/>
     <use xlink:href="#DejaVuSans-6f" x="403.076172"/>
     <use xlink:href="#DejaVuSans-6e" x="464.257812"/>
     <use xlink:href="#DejaVuSans-20" x="527.636719"/>
     <use xlink:href="#DejaVuSans-4d" x="559.423828"/>
     <use xlink:href="#DejaVuSans-65" x="645.703125"/>
     <use xlink:href="#DejaVuSans-74" x="707.226562"/>
     <use xlink:href="#DejaVuSans-72" x="746.435547"/>
     <use xlink:href="#DejaVuSans-69" x="787.548828"/>
     <use xlink:href="#DejaVuSans-63" x="815.332031"/>
     <use xlink:href="#DejaVuSans-73" x="870.3125"/>
    </g>
   </g>
   <g id="text_34">
    <!-- RMSE -->
    <g style="fill: #ffffff" transform="translate(564.764687 514.692) scale(0.07 -0.07)">
     <use xlink:href="#DejaVuSans-52"/>
     <use xlink:href="#DejaVuSans-4d" x="69.482422"/>
     <use xlink:href="#DejaVuSans-53" x="155.761719"/>
     <use xlink:href="#DejaVuSans-45" x="219.238281"/>
    </g>
   </g>
   <g id="text_35">
    <!-- MAE -->
    <g style="fill: #ffffff" transform="translate(567.024375 526.122) scale(0.07 -0.07)">
     <use xlink:href="#DejaVuSans-4d"/>
     <use xlink:href="#DejaVuSans-41" x="86.279297"/>
     <use xlink:href="#DejaVuSans-45" x="154.6875"/>
    </g>
   </g>
   <g id="text_36">
    <!-- R² -->
    <g style="fill: #ffffff" transform="translate(570.814766 537.552) scale(0.07 -0.07)">
     <defs>
      <path id="DejaVuSans-b2" d="M 838 2444 
L 2163 2444 
L 2163 2088 
L 294 2088 
L 294 2431 
Q 400 2528 597 2703 
Q 1672 3656 1672 3950 
Q 1672 4156 1509 4282 
Q 1347 4409 1081 4409 
Q 919 4409 728 4354 
Q 538 4300 313 4191 
L 313 4575 
Q 553 4663 761 4706 
Q 969 4750 1147 4750 
Q 1600 4750 1872 4544 
Q 2144 4338 2144 4000 
Q 2144 3566 1109 2678 
Q 934 2528 838 2444 
z
" transform="scale(0.015625)"/>
     </defs>
     <use xlink:href="#DejaVuSans-52"/>
     <use xlink:href="#DejaVuSans-b2" x="69.482422"/>
    </g>
   </g>
   <g id="text_37">
    <!-- Residuals -->
    <g style="fill: #ffffff" transform="translate(558.045781 548.982) scale(0.07 -0.07)">
     <use xlink:href="#DejaVuSans-52"/>
     <use xlink:href="#DejaVuSans-65" x="64.982422"/>
     <use xlink:href="#DejaVuSans-73" x="126.505859"/>
     <use xlink:href="#DejaVuSans-69" x="178.605469"/>
     <use xlink:href="#DejaVuSans-64" x="206.388672"/>
     <use xlink:href="#DejaVuSans-75" x="269.865234"/>
     <use xlink:href="#DejaVuSans-61" x="333.244141"/>
     <use xlink:href="#DejaVuSans-6c" x="394.523438"/>
     <use xlink:href="#DejaVuSans-73" x="422.306641"/>
    </g>
   </g>
   <g id="text_38">
    <g id="patch_27">
     <path d="M 284.232266 628.907656 
L 428.567734 628.907656 
Q 430.767734 628.907656 430.767734 626.707656 
L 430.767734 616.061719 
Q 430.767734 613.861719 428.567734 613.861719 
L 284.232266 613.861719 
Q 282.032266 613.861719 282.032266 616.061719 
L 282.032266 626.707656 
Q 282.032266 628.907656 284.232266 628.907656 
z
" style="fill: #ecf0f1; stroke: #000000; stroke-linejoin: miter"/>
    </g>
    <!-- PHASE 6: DEPLOYMENT -->
    <g transform="translate(284.232266 624.42) scale(0.11 -0.11)">
     <defs>
      <path id="DejaVuSans-Bold-36" d="M 2316 2303 
Q 2000 2303 1842 2098 
Q 1684 1894 1684 1484 
Q 1684 1075 1842 870 
Q 2000 666 2316 666 
Q 2634 666 2792 870 
Q 2950 1075 2950 1484 
Q 2950 1894 2792 2098 
Q 2634 2303 2316 2303 
z
M 3803 4544 
L 3803 3681 
Q 3506 3822 3243 3889 
Q 2981 3956 2731 3956 
Q 2194 3956 1894 3657 
Q 1594 3359 1544 2772 
Q 1750 2925 1990 3001 
Q 2231 3078 2516 3078 
Q 3231 3078 3670 2659 
Q 4109 2241 4109 1563 
Q 4109 813 3618 361 
Q 3128 -91 2303 -91 
Q 1394 -91 895 523 
Q 397 1138 397 2266 
Q 397 3422 980 4083 
Q 1563 4744 2578 4744 
Q 2900 4744 3203 4694 
Q 3506 4644 3803 4544 
z
" transform="scale(0.015625)"/>
     </defs>
     <use xlink:href="#DejaVuSans-Bold-50"/>
     <use xlink:href="#DejaVuSans-Bold-48" x="73.291016"/>
     <use xlink:href="#DejaVuSans-Bold-41" x="156.982422"/>
     <use xlink:href="#DejaVuSans-Bold-53" x="234.375"/>
     <use xlink:href="#DejaVuSans-Bold-45" x="306.396484"/>
     <use xlink:href="#DejaVuSans-Bold-20" x="374.707031"/>
     <use xlink:href="#DejaVuSans-Bold-36" x="409.521484"/>
     <use xlink:href="#DejaVuSans-Bold-3a" x="479.101562"/>
     <use xlink:href="#DejaVuSans-Bold-20" x="519.091797"/>
     <use xlink:href="#DejaVuSans-Bold-44" x="553.90625"/>
     <use xlink:href="#DejaVuSans-Bold-45" x="636.914062"/>
     <use xlink:href="#DejaVuSans-Bold-50" x="705.224609"/>
     <use xlink:href="#DejaVuSans-Bold-4c" x="778.515625"/>
     <use xlink:href="#DejaVuSans-Bold-4f" x="838.611328"/>
     <use xlink:href="#DejaVuSans-Bold-59" x="919.996094"/>
     <use xlink:href="#DejaVuSans-Bold-4d" x="992.408203"/>
     <use xlink:href="#DejaVuSans-Bold-45" x="1091.919922"/>
     <use xlink:href="#DejaVuSans-Bold-4e" x="1160.230469"/>
     <use xlink:href="#DejaVuSans-Bold-54" x="1243.921875"/>
    </g>
   </g>
   <g id="text_39">
    <!-- Streamlit App -->
    <g style="fill: #ffffff" transform="translate(172.859062 647.28) scale(0.09 -0.09)">
     <use xlink:href="#DejaVuSans-53"/>
     <use xlink:href="#DejaVuSans-74" x="63.476562"/>
     <use xlink:href="#DejaVuSans-72" x="102.685547"/>
     <use xlink:href="#DejaVuSans-65" x="141.548828"/>
     <use xlink:href="#DejaVuSans-61" x="203.072266"/>
     <use xlink:href="#DejaVuSans-6d" x="264.351562"/>
     <use xlink:href="#DejaVuSans-6c" x="361.763672"/>
     <use xlink:href="#DejaVuSans-69" x="389.546875"/>
     <use xlink:href="#DejaVuSans-74" x="417.330078"/>
     <use xlink:href="#DejaVuSans-20" x="456.539062"/>
     <use xlink:href="#DejaVuSans-41" x="488.326172"/>
     <use xlink:href="#DejaVuSans-70" x="556.734375"/>
     <use xlink:href="#DejaVuSans-70" x="620.210938"/>
    </g>
   </g>
   <g id="text_40">
    <!-- Saved Models -->
    <g style="fill: #ffffff" transform="translate(347.035078 647.28) scale(0.09 -0.09)">
     <use xlink:href="#DejaVuSans-53"/>
     <use xlink:href="#DejaVuSans-61" x="63.476562"/>
     <use xlink:href="#DejaVuSans-76" x="124.755859"/>
     <use xlink:href="#DejaVuSans-65" x="183.935547"/>
     <use xlink:href="#DejaVuSans-64" x="245.458984"/>
     <use xlink:href="#DejaVuSans-20" x="308.935547"/>
     <use xlink:href="#DejaVuSans-4d" x="340.722656"/>
     <use xlink:href="#DejaVuSans-6f" x="427.001953"/>
     <use xlink:href="#DejaVuSans-64" x="488.183594"/>
     <use xlink:href="#DejaVuSans-65" x="551.660156"/>
     <use xlink:href="#DejaVuSans-6c" x="613.183594"/>
     <use xlink:href="#DejaVuSans-73" x="640.966797"/>
    </g>
   </g>
   <g id="text_41">
    <!-- REST API -->
    <g style="fill: #ffffff" transform="translate(532.700156 647.28) scale(0.09 -0.09)">
     <use xlink:href="#DejaVuSans-52"/>
     <use xlink:href="#DejaVuSans-45" x="69.482422"/>
     <use xlink:href="#DejaVuSans-53" x="132.666016"/>
     <use xlink:href="#DejaVuSans-54" x="196.142578"/>
     <use xlink:href="#DejaVuSans-20" x="257.226562"/>
     <use xlink:href="#DejaVuSans-41" x="289.013672"/>
     <use xlink:href="#DejaVuSans-50" x="357.421875"/>
     <use xlink:href="#DejaVuSans-49" x="417.724609"/>
    </g>
   </g>
  </g>
 </g>
 <defs>
  <clipPath id="pb63460190c">
   <rect x="7.2" y="7.2" width="698.4" height="914.4"/>
  </clipPath>
 </defs>
</svg>
